<svg xmlns="http://www.w3.org/2000/svg" width="73" height="73" viewBox="0 0 73 73">
  <path id="Exclusion_1" data-name="Exclusion 1" d="M36.5,73A36.51,36.51,0,0,1,22.293,2.868,36.509,36.509,0,0,1,50.708,70.132,36.271,36.271,0,0,1,36.5,73Zm5.931-54.55A3.82,3.82,0,0,0,39.746,19.6c-3.233,3.2-6.508,6.455-9.675,9.6L25.52,33.719a3.457,3.457,0,0,0,0,5.4Q32.2,45.746,38.873,52.37c.1.1.209.21.313.315.286.29.581.589.893.859a3.473,3.473,0,0,0,5.36-1.037,3.4,3.4,0,0,0-.736-4.059c-4.056-4.034-8.158-8.1-11.636-11.548a2.459,2.459,0,0,0-.332-.26c-.064-.044-.13-.09-.2-.142l.2-.216c.093-.1.154-.167.219-.233q3.506-3.482,7.013-6.961.874-.867,1.749-1.732l.009-.009c.967-.957,1.968-1.947,2.948-2.924a3.431,3.431,0,0,0-2.241-5.975Z" transform="translate(0 0)" fill="#fff"/>
</svg>
