<svg xmlns="http://www.w3.org/2000/svg" width="76.776" height="37.232" viewBox="0 0 76.776 37.232">
  <g id="Group_3218" data-name="Group 3218" transform="translate(-417.88 -8046.805)">
    <g id="Group_2842" data-name="Group 2842" transform="translate(-4765.246 6607.595)">
      <g id="Group_2925" data-name="Group 2925" transform="translate(0 3)">
        <g id="Group_2838" data-name="Group 2838" transform="translate(5185.246 1438.405)">
          <path id="Path_6302" data-name="Path 6302" d="M5185.246,1451.143l12.089-12.916,12.09,12.916" transform="translate(-5185.246 -1438.226)" fill="none" stroke="#fff" stroke-linecap="round" stroke-miterlimit="10" stroke-width="3"/>
          <path id="Path_6303" data-name="Path 6303" d="M5238.579,1451.143l12.09-12.916,12.089,12.916" transform="translate(-5214.4 -1438.226)" fill="none" stroke="#fff" stroke-linecap="round" stroke-miterlimit="10" stroke-width="3"/>
          <path id="Path_6304" data-name="Path 6304" d="M5291.912,1451.143,5304,1438.226l12.09,12.916" transform="translate(-5243.555 -1438.226)" fill="none" stroke="#fff" stroke-linecap="round" stroke-miterlimit="10" stroke-width="3"/>
        </g>
        <g id="Group_2839" data-name="Group 2839" transform="translate(5185.246 1448.405)">
          <path id="Path_6305" data-name="Path 6305" d="M5185.246,1469.331l12.089-12.917,12.09,12.917" transform="translate(-5185.246 -1456.414)" fill="none" stroke="#fff" stroke-linecap="round" stroke-miterlimit="10" stroke-width="3"/>
          <path id="Path_6306" data-name="Path 6306" d="M5238.579,1469.331l12.09-12.917,12.089,12.917" transform="translate(-5214.4 -1456.414)" fill="none" stroke="#fff" stroke-linecap="round" stroke-miterlimit="10" stroke-width="3"/>
          <path id="Path_6307" data-name="Path 6307" d="M5291.912,1469.331,5304,1456.414l12.09,12.917" transform="translate(-5243.555 -1456.414)" fill="none" stroke="#fff" stroke-linecap="round" stroke-miterlimit="10" stroke-width="3"/>
        </g>
        <g id="Group_2840" data-name="Group 2840" transform="translate(5185.246 1458.405)">
          <path id="Path_6308" data-name="Path 6308" d="M5185.246,1487.519l12.089-12.916,12.09,12.916" transform="translate(-5185.246 -1474.603)" fill="none" stroke="#fff" stroke-linecap="round" stroke-miterlimit="10" stroke-width="3"/>
          <path id="Path_6309" data-name="Path 6309" d="M5238.579,1487.519l12.09-12.916,12.089,12.916" transform="translate(-5214.4 -1474.603)" fill="none" stroke="#fff" stroke-linecap="round" stroke-miterlimit="10" stroke-width="3"/>
          <path id="Path_6310" data-name="Path 6310" d="M5291.912,1487.519,5304,1474.6l12.09,12.916" transform="translate(-5243.555 -1474.603)" fill="none" stroke="#fff" stroke-linecap="round" stroke-miterlimit="10" stroke-width="3"/>
        </g>
      </g>
    </g>
  </g>
</svg>
