<svg xmlns="http://www.w3.org/2000/svg" width="65.647" height="230.688" viewBox="0 0 65.647 230.688">
  <g id="Group_327" data-name="Group 327" transform="translate(-558.243 183.834) rotate(-49)" opacity="0.834">
    <g id="Group_326" data-name="Group 326" transform="translate(354.971 322.537)">
      <g id="Group_325" data-name="Group 325">
        <g id="Group_319" data-name="Group 319" transform="translate(62.447 55.593)">
          <path id="Path_671" data-name="Path 671" d="M394,382.15l1.953-33.619-9.9-.575-2.528,43.516L427.04,394l.575-9.9Z" transform="translate(-383.524 -347.956)" fill="#fff"/>
        </g>
        <g id="Group_320" data-name="Group 320" transform="translate(93.482 27.966)">
          <path id="Path_672" data-name="Path 672" d="M408.186,369.518l1.953-33.619-9.9-.575-2.528,43.516,43.516,2.528.575-9.9Z" transform="translate(-397.714 -335.324)" fill="#fff"/>
        </g>
        <g id="Group_321" data-name="Group 321" transform="translate(124.898)">
          <path id="Path_673" data-name="Path 673" d="M422.551,356.731l1.953-33.619-9.9-.575-2.528,43.516,43.516,2.528.575-9.9Z" transform="translate(-412.079 -322.537)" fill="#fff"/>
        </g>
        <g id="Group_324" data-name="Group 324" transform="translate(0 83.557)">
          <g id="Group_322" data-name="Group 322" transform="translate(0 27.627)">
            <path id="Path_674" data-name="Path 674" d="M365.442,407.568l1.953-33.619-9.9-.575-2.528,43.516,43.516,2.528.575-9.9Z" transform="translate(-354.971 -373.375)" fill="#fff"/>
          </g>
          <g id="Group_323" data-name="Group 323" transform="translate(31.035)">
            <path id="Path_675" data-name="Path 675" d="M379.633,394.936l1.953-33.619-9.9-.575-2.528,43.516,43.516,2.528.575-9.9Z" transform="translate(-369.161 -360.742)" fill="#fff"/>
          </g>
        </g>
      </g>
    </g>
  </g>
</svg>
