<svg height="318.521" viewBox="0 0 1495 318.521" width="1495" xmlns="http://www.w3.org/2000/svg" xmlns:xlink="http://www.w3.org/1999/xlink"><clipPath id="a"><path d="m0 0h1495v291h-1495z"/></clipPath><clipPath id="b"><path d="m0 0h1474v185h-1474z"/></clipPath><g clip-path="url(#a)" fill="#ef6624"><path d="m143 0a143 143 0 1 1 -143 143 143 143 0 0 1 143-143z" transform="translate(0 1)"/><path d="m143 0a143 143 0 1 1 -143 143 143 143 0 0 1 143-143z" transform="translate(403 1)"/><path d="m143 0a143 143 0 1 1 -143 143 143 143 0 0 1 143-143z" transform="translate(806 1)"/><path d="m143 0a143 143 0 1 1 -143 143 143 143 0 0 1 143-143z" transform="translate(1209 1)"/></g><g clip-path="url(#b)" fill="#fff" font-family="Gotham-Black, Gotham" font-size="27" font-weight="800" transform="translate(20.656 133.521)"><text transform="translate(-17)"><tspan x="49.403" y="22">INNOVATION</tspan></text><text transform="translate(386)"><tspan x="83.544" y="22">PEOPLE</tspan></text><text transform="translate(789)"><tspan x="49.632" y="22">EXPERIENCE</tspan></text><text transform="translate(1192)"><tspan x="14.667" y="22">DIVERSIFICATION</tspan></text></g></svg>