<svg height="676" viewBox="0 0 689 676" width="689" xmlns="http://www.w3.org/2000/svg" xmlns:xlink="http://www.w3.org/1999/xlink"><clipPath id="a"><circle cx="111.043" cy="111.043" r="111.043"/></clipPath><clipPath id="b"><circle cx="356" cy="4846" r="143"/></clipPath><clipPath id="c"><path d="m10026 4909h59v28h-59z"/></clipPath><g transform="translate(-213 -4703)"><circle cx="356" cy="4846" fill="#ef6624" r="143"/><circle cx="759" cy="4846" fill="#ef6624" r="143"/><g clip-path="url(#a)" transform="translate(647 4724.489)"><path d="m-133.148-283.569c-1.229 2.663 32.274 56.263 46.072 86.024h10.46c13.947-30.523 48.358-87.288 47.125-89.957-1.484-3.214 4.525-.243-13.439-10.038s-15.58-27.3-15.738-32.282h-46.315c-.159 4.979 2.227 22.485-15.736 32.282s-10.945 10.759-12.429 13.971z" fill="#a8a6a1" transform="translate(194.239 448.52)"/><g fill="#fff"><path d="m-137.9-215.138h72.612c-.2-11.721-.38-19.038-.528-19.854-.825-4.535-1.187-6.2-3.356-10.167-1.687-3.079-8.329-14.678-10.386-17.546-5.756-8.023-19.442-29.445-23.892-38.565-3.282-6.724-3.513-12.72-8.751-10.713s-29.755 9.281-36.4 13.649c-.215.141 5.9 14.549 7 22.017 1.653 11.153 6.409 45.489 3.701 61.179z" transform="translate(178.809 466.113)"/><path d="m-120.493-221.949c.888-5.206-.11-34.851-1.167-44.489-1.824-16.62-3.631-32.164-8.9-38.844-1.412-2.057-9.813 5.851-10.727 6.754-8.223 8.118-11.229 23.543-18.819 52.395a117.257 117.257 0 0 0 -3.844 24.184z" transform="translate(163.337 472.924)"/><path d="m-34.817-215.108c-2.709-15.69 2.049-50.027 3.7-61.18 1.107-7.467 7.218-21.876 7-22.017-6.646-4.368-31.161-11.645-36.4-13.649s-8.476 2.94-11.758 9.667c-4.453 9.12-15.13 31.589-20.884 39.613-2.057 2.866-8.7 14.467-10.386 17.546-2.169 3.965-2.531 5.632-3.358 10.167-.149.813-.358 8.132-.6 19.854z" transform="translate(220.26 466.084)"/><path d="m-72.164-221.949c-.888-5.206.11-34.851 1.167-44.489 1.824-16.62 3.631-32.164 8.9-38.844 1.412-2.057 9.813 5.851 10.727 6.754 8.223 8.118 11.229 23.543 18.819 52.395a117.256 117.256 0 0 1 3.844 24.184z" transform="translate(255.554 472.924)"/></g><path d="m19.031 0h128.242a19.031 19.031 0 0 1 19.027 19.031v105.977h-166.3v-105.977a19.031 19.031 0 0 1 19.031-19.031z" fill="#fde0b6" transform="translate(32.489 174.629)"/><path d="m0 0h4.88v180.234h-4.88z" fill="#f7aa3e" transform="translate(113.202 174.629)"/><g transform="translate(37.087 23.857)"><ellipse cx="65.064" cy="68.144" fill="#f7aa3e" rx="65.064" ry="68.144" transform="translate(8.892 28.324)"/><path d="m73.956 0a73.956 73.956 0 1 1 -73.956 73.956 73.956 73.956 0 0 1 73.956-73.956z" fill="#fff"/><path d="m-10.624-317.678s0 65.5-65.064 65.5c-59.838 0-65.064-65.5-65.064-65.5s0-44.9 65.064-44.9 65.064 44.9 65.064 44.9z" fill="#f7aa3e" transform="translate(149.644 391.635)"/><path d="m-82.439-356.893c-51.618 0-51.618 35.616-51.618 35.616a66.6 66.6 0 0 0 2.117 11c11.623 11.49 28.259 20.052 52.035 20.052 19.811 0 34.624-5.031 45.707-12.551a64.7 64.7 0 0 0 3.376-18.5s0-35.617-51.617-35.617z" fill="#fff" opacity=".223" transform="translate(156.396 397.363)"/><g fill="#fde0b6"><path d="m-107.331-343.478a8.3 8.3 0 0 1 -8.295 8.295 8.3 8.3 0 0 1 -8.3-8.295 8.3 8.3 0 0 1 8.3-8.3 8.3 8.3 0 0 1 8.295 8.3z" opacity=".593" transform="translate(166.615 402.524)"/><circle cx="6.544" cy="6.544" opacity=".593" r="6.544" transform="translate(29.604 65.508)"/></g></g></g><path d="m-4279.113 1271.409c0-77.044 62.68-139.5 140-139.5s140 62.457 140 139.5-62.68 139.5-140 139.5-140-62.456-140-139.5z" fill="none" transform="translate(4492.113 3574.091)"/><g clip-path="url(#b)"><path d="m-4125.273 1205.989 133-41.087s14.055-4.527 18.82 8.337-7.862 19.3-7.862 19.3l-134.295 41.927s1.094 4.447-2.087 5.638-4.645.08-5.718-3.415-8.735-28.745-8.735-28.745-1.47-3.851 2.187-5.082 4.69 3.127 4.69 3.127z" fill="#fff" transform="translate(4490.5 3545.249)"/><path d="m-4124.968 1229.745s126.736-50.026 133.564-52.409 14.135-4.606 14.452 0-1.112 7.782-5.241 10.169-142.775 44.627-142.775 44.627-1.482-1.802 0-2.387z" fill="#f7aa3e" transform="translate(4491.138 3546.233)"/><path d="m-3030.393 1758.354s-2.965-.318-3.07-4.235 5.506-3.282 5.506-3.282l33.563-.038s4.341-.318 4.341 3.778-3.176 3.778-3.176 3.778v51.245l44.045 76.443s4.341 9.952-6.988 10.058-107.889 0-107.889 0-14.928 1.376-10.058-10.376 43.727-75.6 43.727-75.6z" fill="#fff" transform="translate(3370.098 3057.148)"/><g fill="#f7aa3e"><path d="m-2940.433 2225.678c-.635-1.271-14.928-25.411-14.928-25.411h-12.492a1.9 1.9 0 0 0 .036-.37 1.882 1.882 0 0 0 -1.882-1.883 1.883 1.883 0 0 0 -1.883 1.883 1.886 1.886 0 0 0 .037.37h-19.988a5.242 5.242 0 0 0 -5.122-4.129 5.242 5.242 0 0 0 -5.122 4.129h-8.119a2.639 2.639 0 0 0 .027-.356 2.6 2.6 0 0 0 -2.6-2.6 2.6 2.6 0 0 0 -2.6 2.6 2.639 2.639 0 0 0 .027.356h-27.835s-11.594 19.217-14.77 25.411 3.97 5.4 3.97 5.4h109.424c7.153 0 4.453-4.129 3.82-5.4z" transform="translate(3357.428 2718.146)"/><path d="m-2907.545 2189.189a3.176 3.176 0 0 0 3.176-3.176 3.176 3.176 0 0 0 -3.176-3.176 3.176 3.176 0 0 0 -3.176 3.176 3.176 3.176 0 0 0 3.176 3.176z" transform="translate(3244.974 2728.271)"/><path d="m-2857.02 2153.279a3.954 3.954 0 0 0 3.953-3.954 3.953 3.953 0 0 0 -3.953-3.954 3.954 3.954 0 0 0 -3.954 3.954 3.954 3.954 0 0 0 3.954 3.954z" transform="translate(3207.105 2756.79)"/><circle cx="3.375" cy="3.375" r="3.375" transform="translate(372.978 4910.91)"/><circle cx="3.427" cy="3.427" r="3.427" transform="translate(365.961 4895.571)"/><path d="m-2838.717 2094.3a5.7 5.7 0 0 0 5.7-5.7 5.7 5.7 0 0 0 -5.7-5.7 5.7 5.7 0 0 0 -5.7 5.7 5.7 5.7 0 0 0 5.7 5.7z" transform="translate(3194.502 2800.853)"/><path d="m-2816.807 1791.769s5.311 11.106 6.02 14.665-.236 9.824-6.02 9.682-6.963-6.692-6.374-8.97 6.374-15.377 6.374-15.377z" transform="translate(3177.554 3002.911)"/></g></g><circle cx="759" cy="5236" fill="#ef6624" r="143"/><path d="m740.816 303.353a6.757 6.757 0 0 1 -4.777-11.534c13.761-13.764 13.761-33.119 11.93-46.419-3.417-24.787-26.383-35.7-26.675-35.865a6.757 6.757 0 0 1 6.614-11.784c1.434.8 29.125 14.438 33.448 45.8 2.441 17.708 1.153 40.9-15.762 57.817a6.735 6.735 0 0 1 -4.778 1.985z" fill="#fff" transform="translate(37.337 5010.641)"/><path d="m742.539 5302.145h66.799v38.264h-66.799z" fill="#f7aa3e"/><path d="m736.116 5302.145h33.235v38.264h-33.235z" fill="#f7aa3e"/><g fill="#fde0b6"><path d="m0 0h34.878v83.091h-34.878z" transform="matrix(.951 .309 -.309 .951 737.895306 5151.64156)"/><path d="m0 0h18.189v83.091h-18.189z" transform="matrix(.951 .309 -.309 .951 737.895306 5151.64156)"/><path d="m0 0h26.872v18.861h-26.872z" transform="matrix(.951 .309 -.309 .951 747.688725 5134.453813)"/><path d="m0 0h11.772v18.861h-11.772z" transform="matrix(.951 .309 -.309 .951 747.688725 5134.453813)"/><path d="m0 0h40.691v18.861h-40.691z" transform="matrix(.951 .309 -.309 .951 709.339755 5230.119463)"/><path d="m0 0h17.825v18.861h-17.825z" transform="matrix(.951 .309 -.309 .951 709.339755 5230.119463)"/></g><path d="m39.152 7.181h-35.562a3.59 3.59 0 0 1 0-7.181h35.562a3.59 3.59 0 0 1 0 7.181z" fill="#fff" transform="matrix(.951 .309 -.309 .951 735.42285 5146.52431)"/><path d="m47.1 9.232h-42.484a4.616 4.616 0 1 1 0-9.232h42.484a4.616 4.616 0 1 1 0 9.232z" fill="#fff" transform="matrix(.951 .309 -.309 .951 705.796677 5223.181333)"/><path d="m48.384 11.8h-42.484a5.9 5.9 0 1 1 0-11.8h42.484a5.9 5.9 0 1 1 0 11.8z" fill="#fff" transform="matrix(.951 .309 -.309 .951 698.530674 5241.395314)"/><path d="m37.87 4.616h-35.562a2.308 2.308 0 0 1 0-4.616h35.562a2.308 2.308 0 1 1 0 4.616z" fill="#fff" transform="matrix(.951 .309 -.309 .951 742.321452 5129.441068)"/><path d="m719.214 192.415a14.1 14.1 0 0 0 -7.865-12.65v-1.455h-4.134l-3.224.07a6.793 6.793 0 0 0 -.731.05 14.106 14.106 0 0 0 0 27.968 6.786 6.786 0 0 0 .731.051l3.224.07h4.134v-1.455a14.1 14.1 0 0 0 7.865-12.649z" fill="#f7aa3e" transform="translate(50.058 5019.446)"/><circle cx="14.105" cy="14.105" fill="#fde0b6" r="14.105" transform="matrix(.15884737 -.98730315 .98730315 .15884737 745.241 5223.547)"/><circle cx="8.819" cy="8.819" fill="#fff" r="8.819" transform="matrix(.228 -.974 .974 .228 750.81 5218.436)"/><path d="m730.89 5308.557h62.929v7.443h-62.929z" fill="#fff"/><path d="m694.986 5308.557h62.929v7.443h-62.929z" fill="#fff"/><g clip-path="url(#c)" transform="translate(-9339 370)"><path d="m-1707.975 3063.614c-.114 14.13-8.917 22.786-23.078 22.8s-18.992-7.779-24.394-22.8h-4.539c.295 15.389 13.423 28.477 28.878 28.459s28.655-13.072 28.916-28.462z" fill="#f7aa3e" transform="translate(11786.384 1844.427)"/><path d="m-1747.1 3063.623a24.723 24.723 0 0 0 24.726 23.979 24.723 24.723 0 0 0 24.726-23.979z" fill="#fff" transform="translate(11777.483 1844.416)"/><g fill="#ffc211"><path d="m-1722.135 3063.624h18.172s1.073-.047.35.84-13.017 12.76-13.017 12.76a1.181 1.181 0 0 1 -1.749-.326 22.337 22.337 0 0 1 -3.523-5.622 22.6 22.6 0 0 1 -1.259-6.321c.07-.795.261-1.331 1.026-1.331z" transform="translate(11756.19 1845.377)"/><path d="m-1659.635 3087.164 13.04-12.409s.736-.764.854.335-.184 17.6-.184 17.6-.084 1.1-1.49.972a23.651 23.651 0 0 1 -6.562-1.434 23.029 23.029 0 0 1 -5.441-3.457c-.518-.588-.77-1.082-.217-1.607z" transform="translate(11699.947 1836.396)"/><path d="m-1489.58 3063.624h-18.577s-1.1-.048-.358.858 13.307 13.044 13.307 13.044a1.207 1.207 0 0 0 1.789-.333 22.828 22.828 0 0 0 3.6-5.747 23.115 23.115 0 0 0 1.288-6.462c-.069-.812-.262-1.36-1.049-1.36z" transform="translate(11565.983 1845.377)"/><path d="m-1503.144 3087.164-13.03-12.409s-.736-.764-.853.335.184 17.6.184 17.6.084 1.1 1.489.972a23.589 23.589 0 0 0 6.557-1.434 23.013 23.013 0 0 0 5.436-3.456c.518-.588.769-1.082.217-1.608z" transform="translate(11572.854 1836.396)"/></g></g><circle cx="356" cy="5236" fill="#ef6624" r="143"/><path d="m224.8 161.094v-11.194l-9.778-1.083a27.18 27.18 0 0 0 -3.047-7.332l6.155-7.688-7.919-7.919-7.7 6.162a27.175 27.175 0 0 0 -7.32-3.04l-1.085-9.8h-11.2l-1.085 9.8a27.186 27.186 0 0 0 -7.322 3.032l-7.7-6.162-7.919 7.919 6.155 7.688a27.2 27.2 0 0 0 -3.047 7.332l-9.778 1.083v11.2l9.764 1.081a27.16 27.16 0 0 0 3.042 7.358l-6.136 7.664 7.919 7.919 7.656-6.129a27.167 27.167 0 0 0 7.368 3.057l1.079 9.742h11.2l1.079-9.742a27.168 27.168 0 0 0 7.368-3.057l7.657 6.129 7.919-7.919-6.136-7.664a27.188 27.188 0 0 0 3.043-7.358zm-36.292 8.516a14.087 14.087 0 1 1 14.087-14.087 14.086 14.086 0 0 1 -14.089 14.088z" fill="#fff" transform="translate(103.629 5100.696)"/><circle cx="292.135" cy="5256.219" fill="none" r="19.052" stroke="#fff" stroke-miterlimit="10" stroke-width="1.234"/><path d="m193.047 141.019a19.052 19.052 0 1 0 19.053 19.052 19.052 19.052 0 0 0 -19.053-19.052zm0 33.139a14.087 14.087 0 1 1 14.087-14.087 14.087 14.087 0 0 1 -14.087 14.087z" fill="#f7aa3e" transform="translate(99.088 5096.148)"/><path d="m349.7 180.7v-8.876l-7.75-.858a21.56 21.56 0 0 0 -2.416-5.812l4.879-6.094-6.277-6.277-6.1 4.884a21.542 21.542 0 0 0 -5.8-2.4l-.86-7.767h-8.876l-.86 7.768a21.54 21.54 0 0 0 -5.8 2.4l-6.1-4.884-6.277 6.277 4.879 6.094a21.556 21.556 0 0 0 -2.416 5.812l-7.75.858v8.875l7.739.857a21.548 21.548 0 0 0 2.411 5.833l-4.864 6.075 6.277 6.276 6.068-4.858a21.511 21.511 0 0 0 5.841 2.424l.855 7.722h8.876l.855-7.722a21.531 21.531 0 0 0 5.84-2.423l6.069 4.858 6.277-6.276-4.863-6.075a21.549 21.549 0 0 0 2.411-5.833zm-28.766 6.75a11.166 11.166 0 1 1 11.166-11.165 11.166 11.166 0 0 1 -11.17 11.166z" fill="#fff" transform="translate(90.513 5106.351)"/><path d="m326.09 166.352a15.1 15.1 0 1 0 15.1 15.1 15.1 15.1 0 0 0 -15.1-15.1zm0 26.267a11.166 11.166 0 1 1 11.166-11.166 11.166 11.166 0 0 1 -11.166 11.166z" fill="#f7aa3e" transform="translate(85.353 5101.183)"/><path d="m231.33 104.595-.034.522c-.085-.286-.052-.441.034-.522z" fill="#8c5930" transform="translate(92.164 5120.779)"/><path d="m330.424 99.064-14.317-1.586a39.791 39.791 0 0 0 -4.462-10.736l9.013-11.257-11.596-11.595-11.27 9.022a39.813 39.813 0 0 0 -10.72-4.44l-1.589-14.349h-16.4l-1.583 14.349a39.825 39.825 0 0 0 -10.72 4.44l-11.272-9.022-11.595 11.595 9.012 11.257a39.789 39.789 0 0 0 -4.462 10.736l-14.316 1.586v16.4l14.3 1.584a39.784 39.784 0 0 0 4.455 10.774l-8.984 11.222 11.595 11.594 11.21-8.974a39.793 39.793 0 0 0 10.789 4.477l1.58 14.264h16.4l1.58-14.264a39.782 39.782 0 0 0 10.789-4.477l11.211 8.974 11.595-11.594-8.984-11.222a39.848 39.848 0 0 0 4.455-10.774l14.3-1.584zm-3.354 13.395-13.63 1.51-.565 2.263a36.4 36.4 0 0 1 -4.075 9.868l-1.195 2 8.563 10.7-7.349 7.35-10.687-8.557-2 1.2a36.389 36.389 0 0 1 -9.879 4.1l-2.26.567-1.507 13.6h-10.398l-1.506-13.6-2.26-.567a36.418 36.418 0 0 1 -9.88-4.1l-2-1.2-10.688 8.557-7.349-7.35 8.564-10.7-1.195-2a36.418 36.418 0 0 1 -4.08-9.866l-.565-2.263-13.63-1.51v-10.395l13.645-1.512.57-2.256a36.46 36.46 0 0 1 4.087-9.833l1.2-2-8.594-10.734 7.349-7.35 10.744 8.6 2-1.195a36.435 36.435 0 0 1 9.818-4.066l2.259-.568 1.515-13.679h10.392l1.516 13.683 2.259.568a36.46 36.46 0 0 1 9.818 4.066l2 1.195 10.742-8.6 7.349 7.35-8.592 10.733 1.2 2a36.446 36.446 0 0 1 4.086 9.832l.569 2.257 13.646 1.512z" fill="none" transform="translate(81.762 5112.833)"/><path d="m330.424 115.461v-16.4l-14.317-1.586a39.791 39.791 0 0 0 -4.462-10.736l9.013-11.257-11.596-11.592-11.27 9.022a39.813 39.813 0 0 0 -10.72-4.44l-1.589-14.349h-16.4l-1.583 14.35a39.792 39.792 0 0 0 -10.72 4.439l-11.27-9.022-11.598 11.595 9.013 11.257a39.789 39.789 0 0 0 -4.462 10.736l-14.316 1.586v16.4l14.3 1.584a39.766 39.766 0 0 0 4.455 10.773l-8.985 11.223 11.595 11.594 11.211-8.974a39.793 39.793 0 0 0 10.789 4.477l1.58 14.264h16.4l1.58-14.264a39.782 39.782 0 0 0 10.789-4.477l11.211 8.974 11.595-11.594-8.984-11.223a39.83 39.83 0 0 0 4.455-10.773zm-53.139 12.468a20.626 20.626 0 1 1 20.625-20.629 20.625 20.625 0 0 1 -20.626 20.629z" fill="#fff" transform="translate(89.329 5104.004)"/><path d="m278.391 80.516a27.9 27.9 0 1 0 27.9 27.9 27.9 27.9 0 0 0 -27.9-27.9zm0 48.522a20.626 20.626 0 1 1 20.627-20.626 20.625 20.625 0 0 1 -20.627 20.626z" fill="#f7aa3e" transform="translate(88.222 5102.895)"/></g></svg>