<svg viewBox="0 0 689 689" xmlns="http://www.w3.org/2000/svg"><path d="m143 0a143 143 0 1 1 -143 143 143 143 0 0 1 143-143z" fill="#ef6624"/><path d="m546 0a143 143 0 1 1 -143 143 143 143 0 0 1 143-143z" fill="#ef6624"/><path d="m143 403a143 143 0 1 1 -143 143 143 143 0 0 1 143-143z" fill="#ef6624"/><path d="m546 403a143 143 0 1 1 -143 143 143 143 0 0 1 143-143z" fill="#ef6624"/><g fill="#fff"><path d="m55.52 135.63h4.15v18.89h-4.15z"/><path d="m64.4 135.63h3.83l8.85 11.63v-11.63h4.11v18.89h-3.54l-9.15-12v12h-4.1z"/><path d="m85.73 135.63h3.83l8.85 11.63v-11.63h4.11v18.89h-3.52l-9.15-12v12h-4.1z"/><path d="m106.22 145.13v-.06a10 10 0 0 1 20.08 0 10 10 0 0 1 -20.08.06zm15.74 0v-.06a5.74 5.74 0 0 0 -5.72-5.93 5.65 5.65 0 0 0 -5.67 5.88 5.74 5.74 0 0 0 5.72 5.94 5.65 5.65 0 0 0 5.71-5.83z"/><path d="m127.17 135.63h4.59l4.94 13.3 4.94-13.3h4.48l-7.64 19h-3.67z"/><path d="m152.82 135.49h3.83l8.1 19h-4.34l-1.73-4.24h-8l-1.68 4.27h-4.24zm4.37 11.12-2.51-6.13-2.51 6.13z"/><path d="m169.64 139.46h-5.75v-3.83h15.66v3.83h-5.75v15.06h-4.16z"/><path d="m182.93 135.63h4.15v18.89h-4.15z"/><path d="m191 145.13v-.06a10 10 0 0 1 20.09 0 10 10 0 0 1 -20.09.06zm15.74 0v-.06a5.73 5.73 0 0 0 -5.72-5.93 5.65 5.65 0 0 0 -5.67 5.88 5.74 5.74 0 0 0 5.65 5.98 5.65 5.65 0 0 0 5.71-5.87z"/><path d="m214.76 135.63h3.83l8.86 11.63v-11.63h4.1v18.89h-3.55l-9.15-12v12h-4.1z"/><path d="m492.47 135.63h7.72c4.51 0 7.23 2.67 7.23 6.53v.05c0 4.38-3.4 6.64-7.64 6.64h-3.16v5.67h-4.15zm7.45 9.52c2.08 0 3.29-1.24 3.29-2.86 0-1.86-1.3-2.86-3.37-2.86h-3.22v5.77z"/><path d="m510.5 135.63h14.26v3.69h-10.13v3.84h8.91v3.69h-8.91v4h10.26v3.7h-14.39z"/><path d="m527.76 145.13v-.06a10 10 0 0 1 20.08 0 9.78 9.78 0 0 1 -10.07 9.78 9.68 9.68 0 0 1 -10.01-9.72zm15.73 0v-.06a5.73 5.73 0 0 0 -5.72-5.93 5.65 5.65 0 0 0 -5.67 5.86 5.74 5.74 0 0 0 5.72 5.94 5.65 5.65 0 0 0 5.67-5.81z"/><path d="m551.54 135.63h7.72c4.51 0 7.24 2.67 7.24 6.53v.05c0 4.38-3.4 6.64-7.64 6.64h-3.16v5.67h-4.16zm7.45 9.52c2.08 0 3.3-1.24 3.3-2.86 0-1.86-1.3-2.86-3.38-2.86h-3.21v5.77z"/><path d="m569.58 135.63h4.16v15.11h9.42v3.78h-13.58z"/><path d="m586.29 135.63h14.25v3.69h-10.12v3.84h8.91v3.69h-8.91v4h10.26v3.7h-14.39z"/><path d="m55.56 538.63h14.25v3.69h-10.12v3.84h8.9v3.7h-8.9v4h10.25v3.7h-14.38z"/><path d="m78.8 547.91-6.32-9.28h4.86l3.94 6.12 4-6.12h4.72l-6.32 9.23 6.59 9.66h-4.83l-4.24-6.52-4.26 6.48h-4.73z"/><path d="m93.41 538.63h7.72c4.51 0 7.23 2.67 7.23 6.53v.05c0 4.38-3.4 6.64-7.64 6.64h-3.15v5.67h-4.16zm7.45 9.53c2.08 0 3.29-1.25 3.29-2.87 0-1.86-1.29-2.86-3.37-2.86h-3.21v5.78z"/><path d="m111.45 538.63h14.25v3.69h-10.12v3.84h8.9v3.7h-8.9v4h10.25v3.7h-14.38z"/><path d="m129.54 538.63h8.63a7.53 7.53 0 0 1 5.51 1.91 6 6 0 0 1 1.62 4.32v.06a5.86 5.86 0 0 1 -4.05 5.85l4.62 6.75h-4.87l-4-6h-3.27v6h-4.15zm8.36 9.17c2 0 3.19-1.08 3.19-2.67 0-1.78-1.24-2.7-3.27-2.7h-4.13v5.42z"/><path d="m149.25 538.63h4.15v18.89h-4.15z"/><path d="m158.13 538.63h14.25v3.69h-10.12v3.84h8.9v3.7h-8.9v4h10.26v3.7h-14.39z"/><path d="m176.22 538.63h3.83l8.85 11.63v-11.63h4.1v18.89h-3.54l-9.15-12v12h-4.1z"/><path d="m196.71 548.13v-.06a9.6 9.6 0 0 1 9.85-9.77 9.72 9.72 0 0 1 7.45 2.92l-2.64 3a7 7 0 0 0 -4.83-2.13 5.59 5.59 0 0 0 -5.48 5.88v.05c0 3.24 2.24 5.94 5.48 5.94a6.79 6.79 0 0 0 5-2.21l2.65 2.67a9.66 9.66 0 0 1 -7.75 3.38 9.54 9.54 0 0 1 -9.73-9.67z"/><path d="m217.47 538.63h14.26v3.69h-10.13v3.84h8.91v3.7h-8.91v4h10.26v3.7h-14.39z"/><path d="m423.59 538.63h7.41c5.94 0 10 4.07 10 9.39v.05c0 5.32-4.1 9.45-10 9.45h-7.37zm7.41 15.14a5.39 5.39 0 0 0 5.7-5.64v-.06a5.43 5.43 0 0 0 -5.7-5.69h-3.21v11.39z"/><path d="m444.89 538.63h4.16v18.89h-4.16z"/><path d="m452.16 538.63h4.59l4.94 13.3 4.93-13.3h4.49l-7.64 19h-3.67z"/><path d="m474 538.63h14.25v3.69h-10.09v3.84h8.9v3.7h-8.9v4h10.25v3.7h-14.41z"/><path d="m492.12 538.63h8.63a7.53 7.53 0 0 1 5.51 1.91 6 6 0 0 1 1.62 4.32v.06a5.86 5.86 0 0 1 -4.05 5.85l4.62 6.75h-4.86l-4-6h-3.27v6h-4.15zm8.36 9.17c2 0 3.19-1.08 3.19-2.67 0-1.78-1.24-2.7-3.27-2.7h-4.13v5.42z"/><path d="m510.34 554.77 2.46-2.94a8.68 8.68 0 0 0 5.64 2.29c1.7 0 2.73-.67 2.73-1.78v-.05c0-1.06-.65-1.6-3.81-2.41-3.81-1-6.26-2-6.26-5.77v-.06c0-3.43 2.75-5.69 6.61-5.69a11 11 0 0 1 7 2.4l-2.16 3.13a8.86 8.86 0 0 0 -4.91-1.86c-1.6 0-2.43.73-2.43 1.64v.06c0 1.24.81 1.64 4.07 2.48 3.84 1 6 2.38 6 5.67 0 3.76-2.87 5.86-6.94 5.86a12.06 12.06 0 0 1 -8-2.97z"/><path d="m529.11 538.63h4.15v18.89h-4.15z"/><path d="m538 538.63h14.39v3.78h-10.24v4h9v3.78h-9v7.31h-4.15z"/><path d="m555.89 538.63h4.16v18.89h-4.16z"/><path d="m563.94 548.13v-.06a9.6 9.6 0 0 1 9.85-9.77 9.76 9.76 0 0 1 7.45 2.92l-2.65 3a7 7 0 0 0 -4.83-2.13 5.6 5.6 0 0 0 -5.48 5.88v.05c0 3.24 2.24 5.94 5.48 5.94a6.83 6.83 0 0 0 5-2.21l2.64 2.67a9.64 9.64 0 0 1 -7.74 3.38 9.54 9.54 0 0 1 -9.72-9.67z"/><path d="m591.18 538.49h3.82l8.1 19h-4.35l-1.75-4.21h-8l-1.72 4.24h-4.24zm4.37 11.12-2.55-6.12-2.51 6.12z"/><path d="m608 542.46h-5.75v-3.83h15.65v3.83h-5.75v15.06h-4.15z"/><path d="m621.28 538.63h4.16v18.89h-4.16z"/><path d="m629.33 548.13v-.06a10 10 0 0 1 20.08-.05v.05a10 10 0 0 1 -20.08.06zm15.74 0v-.06a5.74 5.74 0 0 0 -5.73-5.93 5.64 5.64 0 0 0 -5.66 5.88v.05a5.74 5.74 0 0 0 5.72 5.93 5.65 5.65 0 0 0 5.67-5.87z"/><path d="m653.12 538.63h3.88l8.85 11.63v-11.63h4.11v18.89h-3.54l-9.15-12v12h-4.1z"/></g></svg>