<svg xmlns="http://www.w3.org/2000/svg" viewBox="0 0 1296.26 247.98"><defs><style>.cls-1{fill:#ef6624;}.cls-2{isolation:isolate;}.cls-3{fill:#fff;}</style></defs><g id="Layer_2" data-name="Layer 2"><g id="Layer_1-2" data-name="Layer 1"><g id="Repeat_Grid_4" data-name="Repeat Grid 4"><path id="Path_6318" data-name="Path 6318" class="cls-1" d="M124,0A124,124,0,1,1,0,124,124,124,0,0,1,124,0Z"/><path id="Path_6318-2" data-name="Path 6318-2" class="cls-1" d="M473.42,0a124,124,0,1,1-124,124A124,124,0,0,1,473.42,0Z"/><path id="Path_6318-3" data-name="Path 6318-3" class="cls-1" d="M822.84,0a124,124,0,1,1-124,124A124,124,0,0,1,822.84,0Z"/><path id="Path_6318-4" data-name="Path 6318-4" class="cls-1" d="M1172.27,0a124,124,0,1,1-124,124A124,124,0,0,1,1172.27,0Z"/></g><g id="Repeat_Grid_1" data-name="Repeat Grid 1"><g id="INNOVATION" class="cls-2"><g class="cls-2"><path class="cls-3" d="M48.14,117.59h3.6V134h-3.6Z"/><path class="cls-3" d="M55.84,117.59h3.32l7.68,10.09V117.59H70.4V134H67.33L59.4,123.56V134H55.84Z"/><path class="cls-3" d="M74.33,117.59h3.33l7.67,10.09V117.59h3.56V134H85.82l-7.93-10.42V134H74.33Z"/><path class="cls-3" d="M92.1,125.83v0a8.71,8.71,0,0,1,17.42-.05v.05a8.71,8.71,0,0,1-17.42,0Zm13.65,0v0a5,5,0,0,0-5-5.15,4.89,4.89,0,0,0-4.91,5.1v.05a5,5,0,0,0,5,5.15A4.91,4.91,0,0,0,105.75,125.83Z"/><path class="cls-3" d="M110.27,117.59h4l4.28,11.54,4.28-11.54h3.89l-6.63,16.51h-3.18Z"/><path class="cls-3" d="M132.51,117.48h3.32l7,16.5h-3.77l-1.49-3.68h-6.93l-1.5,3.68h-3.68Zm3.79,9.64-2.18-5.31-2.18,5.31Z"/><path class="cls-3" d="M147.09,120.92h-5v-3.33h13.57v3.33h-5V134h-3.61Z"/><path class="cls-3" d="M158.61,117.59h3.6V134h-3.6Z"/><path class="cls-3" d="M165.59,125.83v0a8.71,8.71,0,0,1,17.41-.05v.05a8.71,8.71,0,0,1-17.41,0Zm13.64,0v0a5,5,0,0,0-5-5.15,4.89,4.89,0,0,0-4.91,5.1v.05a5,5,0,0,0,5,5.15A4.9,4.9,0,0,0,179.23,125.83Z"/><path class="cls-3" d="M186.21,117.59h3.33l7.67,10.09V117.59h3.56V134H197.7l-7.93-10.42V134h-3.56Z"/></g></g><g id="PEOPLE" class="cls-2"><g class="cls-2"><path class="cls-3" d="M427,117.59h6.7c3.9,0,6.27,2.32,6.27,5.67v0c0,3.79-3,5.75-6.63,5.75h-2.73V134H427Zm6.46,8.27c1.8,0,2.86-1.08,2.86-2.48v0c0-1.62-1.13-2.48-2.93-2.48h-2.78v5Z"/><path class="cls-3" d="M442.64,117.59H455v3.21h-8.78v3.33H454v3.2h-7.73v3.44h8.9V134H442.64Z"/><path class="cls-3" d="M457.6,125.83v0a8.71,8.71,0,0,1,17.41-.05v.05a8.71,8.71,0,0,1-17.41,0Zm13.65,0v0a5,5,0,0,0-5-5.15,4.89,4.89,0,0,0-4.91,5.1v.05a5,5,0,0,0,5,5.15A4.91,4.91,0,0,0,471.25,125.83Z"/><path class="cls-3" d="M478.22,117.59h6.7c3.91,0,6.27,2.32,6.27,5.67v0c0,3.79-2.95,5.75-6.62,5.75h-2.74V134h-3.61Zm6.46,8.27c1.81,0,2.86-1.08,2.86-2.48v0c0-1.62-1.12-2.48-2.93-2.48h-2.78v5Z"/><path class="cls-3" d="M493.86,117.59h3.61V130.7h8.17V134H493.86Z"/><path class="cls-3" d="M508.35,117.59h12.36v3.21h-8.78v3.33h7.73v3.2h-7.73v3.44h8.9V134H508.35Z"/></g></g><g id="EXPERIENCE" class="cls-2"><g class="cls-2"><path class="cls-3" d="M747,117.59h12.36v3.21h-8.77v3.33h7.72v3.2h-7.72v3.44h8.89V134H747Z"/><path class="cls-3" d="M767.18,125.65l-5.48-8.06h4.22l3.41,5.32,3.49-5.32h4.1l-5.48,8,5.71,8.38h-4.21l-3.68-5.62L765.57,134h-4.1Z"/><path class="cls-3" d="M779.85,117.59h6.69c3.91,0,6.27,2.32,6.27,5.67v0c0,3.79-2.95,5.75-6.62,5.75h-2.74V134h-3.6Zm6.46,8.27c1.8,0,2.85-1.08,2.85-2.48v0c0-1.62-1.12-2.48-2.92-2.48h-2.79v5Z"/><path class="cls-3" d="M795.48,117.59h12.36v3.21h-8.77v3.33h7.72v3.2h-7.72v3.44H808V134H795.48Z"/><path class="cls-3" d="M811.17,117.59h7.49a6.5,6.5,0,0,1,4.77,1.67,5.11,5.11,0,0,1,1.41,3.74v0a5.09,5.09,0,0,1-3.51,5.08l4,5.85h-4.21l-3.51-5.24h-2.84V134h-3.6Zm7.26,8c1.75,0,2.76-.93,2.76-2.31v0c0-1.55-1.08-2.34-2.83-2.34h-3.59v4.7Z"/><path class="cls-3" d="M828.26,117.59h3.6V134h-3.6Z"/><path class="cls-3" d="M836,117.59h12.36v3.21h-8.78v3.33h7.73v3.2h-7.73v3.44h8.9V134H836Z"/><path class="cls-3" d="M851.65,117.59H855l7.68,10.09V117.59h3.56V134h-3.07l-7.94-10.42V134h-3.55Z"/><path class="cls-3" d="M869.41,125.83v0a8.34,8.34,0,0,1,8.55-8.48,8.44,8.44,0,0,1,6.46,2.53l-2.3,2.65a6,6,0,0,0-4.19-1.85,4.85,4.85,0,0,0-4.75,5.1v.05a4.87,4.87,0,0,0,4.75,5.15,5.91,5.91,0,0,0,4.31-1.92l2.3,2.32a8.39,8.39,0,0,1-6.72,2.92A8.28,8.28,0,0,1,869.41,125.83Z"/><path class="cls-3" d="M887.42,117.59h12.36v3.21H891v3.33h7.72v3.2H891v3.44h8.89V134H887.42Z"/></g></g><g id="DIVERSIFICATION" class="cls-2"><g class="cls-2"><path class="cls-3" d="M1066.13,117.59h6.39c5.15,0,8.71,3.54,8.71,8.15v.05c0,4.61-3.56,8.19-8.71,8.19h-6.39Zm6.39,13.14a4.67,4.67,0,0,0,4.94-4.9v0a4.7,4.7,0,0,0-4.94-4.94h-2.78v9.88Z"/><path class="cls-3" d="M1084.61,117.59h3.6V134h-3.6Z"/><path class="cls-3" d="M1090.9,117.59h4l4.29,11.54,4.28-11.54h3.88l-6.62,16.51h-3.18Z"/><path class="cls-3" d="M1109.87,117.59h12.36v3.21h-8.78v3.33h7.72v3.2h-7.72v3.44h8.89V134h-12.47Z"/><path class="cls-3" d="M1125.55,117.59H1133a6.54,6.54,0,0,1,4.78,1.67,5.14,5.14,0,0,1,1.4,3.74v0a5.09,5.09,0,0,1-3.51,5.08l4,5.85h-4.21l-3.51-5.24h-2.83V134h-3.61Zm7.26,8c1.75,0,2.76-.93,2.76-2.31v0c0-1.55-1.08-2.34-2.83-2.34h-3.58v4.7Z"/><path class="cls-3" d="M1141.35,131.59l2.13-2.55a7.51,7.51,0,0,0,4.89,2c1.48,0,2.37-.58,2.37-1.54v-.05c0-.91-.56-1.38-3.3-2.08-3.3-.85-5.43-1.76-5.43-5v0c0-3,2.39-4.94,5.73-4.94a9.51,9.51,0,0,1,6.09,2.08l-1.87,2.72a7.67,7.67,0,0,0-4.26-1.62c-1.39,0-2.11.64-2.11,1.43v0c0,1.08.7,1.43,3.53,2.15,3.33.87,5.2,2.06,5.2,4.92v0c0,3.26-2.48,5.08-6,5.08A10.41,10.41,0,0,1,1141.35,131.59Z"/><path class="cls-3" d="M1157.62,117.59h3.61V134h-3.61Z"/><path class="cls-3" d="M1165.33,117.59h12.47v3.28h-8.87v3.49h7.82v3.28h-7.82V134h-3.6Z"/><path class="cls-3" d="M1180.85,117.59h3.6V134h-3.6Z"/><path class="cls-3" d="M1187.82,125.83v0a8.33,8.33,0,0,1,8.55-8.48,8.44,8.44,0,0,1,6.46,2.53l-2.3,2.65a6,6,0,0,0-4.19-1.85,4.85,4.85,0,0,0-4.75,5.1v.05a4.86,4.86,0,0,0,4.75,5.15,5.91,5.91,0,0,0,4.31-1.92l2.29,2.32a8.35,8.35,0,0,1-6.71,2.92A8.27,8.27,0,0,1,1187.82,125.83Z"/><path class="cls-3" d="M1211.44,117.48h3.33l7,16.5H1218l-1.5-3.68h-6.93L1208.1,134h-3.68Zm3.8,9.64-2.18-5.31-2.18,5.31Z"/><path class="cls-3" d="M1226,120.92h-5v-3.33h13.58v3.33h-5V134H1226Z"/><path class="cls-3" d="M1237.55,117.59h3.6V134h-3.6Z"/><path class="cls-3" d="M1244.52,125.83v0a8.71,8.71,0,0,1,17.42-.05v.05a8.71,8.71,0,0,1-17.42,0Zm13.65,0v0a5,5,0,0,0-5-5.15,4.9,4.9,0,0,0-4.92,5.1v.05a5,5,0,0,0,5,5.15A4.9,4.9,0,0,0,1258.17,125.83Z"/><path class="cls-3" d="M1265.15,117.59h3.32l7.68,10.09V117.59h3.56V134h-3.07l-7.93-10.42V134h-3.56Z"/></g></g></g></g></g></svg>