<svg xmlns="http://www.w3.org/2000/svg" xmlns:xlink="http://www.w3.org/1999/xlink" width="1125" height="3321"><defs><radialGradient id="b" cx=".5" cy=".5" r="1.186" gradientTransform="matrix(.312 0 0 1 .344 0)" gradientUnits="objectBoundingBox"><stop offset=".589" stop-color="#fff" stop-opacity="0"/><stop offset=".966" stop-color="#6e7797" stop-opacity=".02"/><stop offset="1" stop-color="#212e60" stop-opacity=".031"/></radialGradient><radialGradient id="h" cx=".5" cy=".5" r="1.456" gradientTransform="matrix(.25 0 0 1 .375 0)" xlink:href="#b"/><radialGradient id="i" cx=".5" cy=".5" r="1.551" gradientTransform="matrix(.234 0 0 1 .383 0)" xlink:href="#b"/><radialGradient id="j" cx=".5" cy=".5" r="1.553" gradientTransform="matrix(.234 0 0 1 .383 0)" xlink:href="#b"/><radialGradient id="k" cx=".5" cy=".5" r="1.032" gradientTransform="matrix(.365 0 0 1 .318 0)" xlink:href="#b"/><radialGradient id="l" cx=".5" cy=".5" r="1.742" gradientTransform="matrix(.207 0 0 1 .396 0)" xlink:href="#b"/><linearGradient id="e" x1=".205" y1=".129" x2=".827" y2=".912" gradientUnits="objectBoundingBox"><stop offset="0" stop-color="#ff933a"/><stop offset=".113" stop-color="#f87e2e"/><stop offset=".184" stop-color="#f57228"/><stop offset=".288" stop-color="#f36b24"/><stop offset=".555" stop-color="#f36a24"/><stop offset="1" stop-color="#f16421"/></linearGradient><linearGradient id="a" x1=".134" y1=".123" x2=".876" y2=".968" gradientUnits="objectBoundingBox"><stop offset="0" stop-color="#212e60" stop-opacity=".4"/><stop offset=".079" stop-color="#212e60" stop-opacity=".333"/><stop offset=".36" stop-color="#212e60" stop-opacity=".145"/><stop offset=".658" stop-color="#212e60" stop-opacity=".035"/><stop offset="1" stop-color="#212e60" stop-opacity="0"/></linearGradient><linearGradient id="f" x1=".063" y1=".425" x2="1.152" y2=".425" xlink:href="#a"/><linearGradient id="g" x1="-3.807" y1="3.144" x2="-2.718" y2="3.144" xlink:href="#a"/><linearGradient id="m" y1=".5" x2="1" y2=".5" gradientUnits="objectBoundingBox"><stop offset="0" stop-color="#fff"/><stop offset="1"/></linearGradient><clipPath id="d"><path fill="none" d="M0 0h1415.499v2390.531H0z"/></clipPath><clipPath id="c"><path d="M0 0h1125v3321H0z"/></clipPath></defs><g clip-path="url(#c)"><path fill="#fff" d="M0 0h1125v3321H0z"/><g transform="translate(-81 .053)"><path fill="#e8eff7" d="M79-.053h1128v2441H79z"/><text transform="translate(137 627.947)" fill="#186aa5" font-size="60" font-family="Montserrat-Bold, Montserrat" font-weight="700"><tspan x="0" y="58">WE STAY AHEAD</tspan></text><text transform="translate(140 538.947)" fill="#186aa5" font-size="15" font-family="Montserrat-Medium, Montserrat" font-weight="500"><tspan x="0" y="15">FROM ORANGE DATA TO EVERYTHING</tspan></text><ellipse cx="628" cy="627.5" rx="628" ry="627.5" transform="translate(344 1397.948)" fill="#cbddea"/><circle cx="54.5" cy="54.5" r="54.5" transform="translate(251 1132.948)" fill="#cbddea"/><path fill="#fff" d="M79 2440.948h1128v1928H79z"/><path fill="#233e97" d="M51.813-19.113h1172.589v2012.905H51.813z"/><g transform="translate(113.71 183.304)"><circle cx="2.075" cy="2.075" r="2.075" transform="translate(1258.433 69.351)" fill="#71cfd8" opacity=".41" style="isolation:isolate"/><circle cx="2.075" cy="2.075" r="2.075" transform="translate(0 581.303)" fill="#71cfd8" opacity=".41" style="isolation:isolate"/><path d="M1400.21 974.47" fill="#71cfd8"/><circle cx="4.398" cy="4.398" r="4.398" transform="translate(1472.292 527.015)" fill="#71cfd8" opacity=".41" style="isolation:isolate"/><circle cx="4.398" cy="4.398" r="4.398" transform="translate(1503.517 343.817)" fill="#71cfd8" opacity=".41" style="isolation:isolate"/><circle cx="2.075" cy="2.075" r="2.075" transform="translate(1472.869 237.512)" fill="#71cfd8" opacity=".41" style="isolation:isolate"/><circle cx="4.398" cy="4.398" r="4.398" transform="translate(897.215 658.621)" fill="#71cfd8" opacity=".41" style="isolation:isolate"/><circle cx="4.398" cy="4.398" r="4.398" transform="translate(55.625 1019.567)" fill="#71cfd8" opacity=".41" style="isolation:isolate"/><circle cx="4.398" cy="4.398" r="4.398" transform="translate(86.849 836.365)" fill="#71cfd8" opacity=".41" style="isolation:isolate"/><circle cx="2.075" cy="2.075" r="2.075" transform="translate(1217.945 358.269)" fill="#71cfd8" opacity=".41" style="isolation:isolate"/><circle cx="2.075" cy="2.075" r="2.075" transform="translate(669.426 537.379)" fill="#71cfd8" opacity=".41" style="isolation:isolate"/><circle cx="2.075" cy="2.075" r="2.075" transform="translate(874.667 848.69)" fill="#71cfd8" opacity=".41" style="isolation:isolate"/><circle cx="4.398" cy="4.398" r="4.398" transform="translate(620.713 728.02)" fill="#71cfd8" opacity=".41" style="isolation:isolate"/><circle cx="2.075" cy="2.075" r="2.075" transform="translate(361.673 789.979)" fill="#71cfd8" opacity=".41" style="isolation:isolate"/><path d="M415.471 421.108c1.225 2.093 1.967 4.4 4.395 4.4a4.414 4.414 0 004.4-4.4" fill="#71cfd8" opacity=".41" style="isolation:isolate"/><circle cx="8.793" cy="8.793" r="8.793" transform="translate(624.551 1083.239)" fill="#71cfd8" opacity=".41" style="isolation:isolate"/><circle cx="4.398" cy="4.398" r="4.398" transform="translate(291.049 1180.67)" fill="#71cfd8" opacity=".41" style="isolation:isolate"/><circle cx="4.398" cy="4.398" r="4.398" transform="translate(322.551 997.468)" fill="#71cfd8" opacity=".41" style="isolation:isolate"/><circle cx="2.075" cy="2.075" r="2.075" transform="translate(291.623 891.163)" fill="#71cfd8" opacity=".41" style="isolation:isolate"/><circle cx="2.075" cy="2.075" r="2.075" transform="translate(36.699 1011.92)" fill="#71cfd8" opacity=".41" style="isolation:isolate"/><circle cx="4.398" cy="4.398" r="4.398" transform="translate(736.772 289.507)" fill="#71cfd8" opacity=".41" style="isolation:isolate"/><circle cx="4.398" cy="4.398" r="4.398" transform="translate(768.021 106.306)" fill="#71cfd8" opacity=".41" style="isolation:isolate"/><circle cx="2.075" cy="2.075" r="2.075" transform="translate(737.344)" fill="#71cfd8" opacity=".41" style="isolation:isolate"/><circle cx="2.075" cy="2.075" r="2.075" transform="translate(482.202 120.761)" fill="#71cfd8" opacity=".41" style="isolation:isolate"/><circle cx="4.398" cy="4.398" r="4.398" transform="translate(4.109 1219.177)" fill="#71cfd8" opacity=".41" style="isolation:isolate"/></g><g transform="translate(-39.801 931.863)" clip-path="url(#d)"><g transform="translate(-414.657 476.29)"><circle cx="1161.502" cy="1161.502" r="1161.502" fill="#29409b"/><circle cx="1061.004" cy="1061.004" r="1061.004" transform="translate(219.795 320.911)" fill="#2c43a2"/><circle cx="953.987" cy="953.987" r="953.987" transform="translate(450.89 611.951)" fill="#2f48af"/></g></g><g transform="translate(178.203 1199.609)"><circle cx="590.599" cy="590.599" r="590.599" transform="translate(30.561 31.831)" fill="url(#e)"/><path d="M1211.306 599.162q-.223-5.724-.561-11.418c-55.564-28.837-260.871-129.76-428.152-139.412-195.505-11.252-302.517 34.613-418.6-7.55-89.97-32.734-186.015-121.639-224.663-159.968a589.712 589.712 0 00-59.908 106.037c67.531 50.4 161.182 106.084 261.669 123.369 197.1 33.894 367.311-62.819 521.47-31.658 154.036 31.225 348.777 153.291 348.777 153.291q.452-16.418-.032-32.691zM1057.271 1020.689a590.031 590.031 0 00126.026-216.629c-27.426 1.81-272.3 15.24-324.912-78.059-55.627-98.921-112.276-123.689-200.925-113.23-88.564 10.489-200.107 81.758-307.728 52.951-103.077-27.684-295.212-132.2-311.14-140.911a594.556 594.556 0 00-8.032 97.617 593.138 593.138 0 0011.985 118.956c26.817 50.03 76.413 113.56 157.137 119.77 134.906 10.378 438.624 57.469 638.26 116.085 116.565 34.166 183.669 42.46 219.329 43.45zm-32.664-89.664c1.6-26.513 39.241-27.514 38.621.99-.657 28.598-39.367 12.538-38.621-.99zM214.289 809.097c-14.04-34.859 75.684-39.022 93.26-13.787 17.494 25.195-63.606 87.662-93.26 13.788zm380.1-159.237c84.035-34.24 231.73 27.182 217.694 82.306S529.455 676.294 594.39 649.86zm169.194 282.311c-2.379-49.038 57.293-17.234 71.276 8.365s-69.392 31.243-71.275-8.365z" fill="#974d8b" opacity=".1" style="isolation:isolate"/><path d="M205.463 1041.945c106.721 105.758 253.577 171.085 415.7 171.085 326.178 0 590.6-264.42 590.6-590.6 0-185.818-85.815-351.59-219.975-459.853 194.281 220.158 27.516 563.3-103.13 711.418-131.839 149.459-440.398 342.37-683.195 167.95z" fill="#91345c" opacity=".17" style="isolation:isolate"/></g><path d="M1248.227 1064.979s-100.491-85.374-123.613-100.491S910.293 814.2 882.725 799.08 834.7 767.065 818.7 767.065c0 0-126.527-98.529-153.982-107.031-3.9-1.207-4.705-3.65-4.872 1.1s97.841 79.295 100.717 83.806c4.75 7.455-9 3-20.009-6s-87.137-74.618-87.137-74.618-5.562-2.092-5.211 3.614c.427 6.95 141.369 155.376 145.037 166.048s-9 5-11.339 1.667-35.643-42.659-44.354-53.692c-10.371-13.137-18.548-18.851-21.675-16.673-5.909 4.113-6.338 10.337-1.668 18.007S860.6 954.039 887.284 976.715s86.038 79.371 134.06 107.717 105.035 59.458 134.062 62.361c33.348 3.336 159.963-5.557 92.821-81.814z" transform="translate(134.446 564.9)" fill="url(#a)"/><path d="M863.833 994.762s-.1-.162-.257-.4c-.1-.156-.215-.327-.387-.566-3.652-6.131-20.988-26.126-22.169-51.345-.241-5.128.937-8.8-1.543-15.021a84.782 84.782 0 00-10.793-18.867c-3.167-4.254-6.9-8.618-8.5-12.835-1.282-3.375-2.908-6.555-4.266-9.92-.728-1.825-1.482-3.6-2.242-5.339-.2-.459-.395-.919-.608-1.378-1.188-2.659-2.385-5.174-3.544-7.507L736.1 796.711c-.034.026-.056.084-.094.108a1.4 1.4 0 01-1.526-.467v.012l-.115-.116-.034-.036-119.113-121.477c-.04-.038-.08-.078-.12-.123a6.642 6.642 0 01-1.388-2.6 7.682 7.682 0 01-.311-3.271 3.154 3.154 0 01.323-1.045 1.354 1.354 0 01.59-.6c.5-.239 1.1 0 1.645.568l119.271 121.644v.006a6.68 6.68 0 011.38 2.584.809.809 0 00.02.092l66.685 68c-1.452-2.529-2.367-3.985-2.367-3.985L883.326 940s.5.816 1.4 2.437c.249.425.451.845.684 1.27l3.775 3.849v.006a4.473 4.473 0 01.926 1.733c.457 1.507.273 2.985-.4 3.305-.014.006-.032 0-.046 0 .405.909.812 1.817 1.243 2.728 2.55 5.389 6.472 11.021 9.968 16.513 1.677 2.635 3.36 5.279 5.225 7.882 2.852 3.984 6.109 7.854 8.881 11.85 4.637 6.689 8.3 13.745 8.081 19.127-.056 1.51-.15 3.016-.3 4.506l-.125 1.2c-.092.682-.124 1.384-.186 2.08-.018.359-.024.724-.062 1.087a45.534 45.534 0 00-.173 5.654c.291 15.494 3.917 17.935 9.728 30.059 2.3 4.743 4.577 8.923 6.53 12.306 3.287 5.684 5.732 9.11 5.732 9.11z" transform="translate(88.724 573.627)" fill="url(#f)"/><path d="M1661.264 1031.747l-.24-.375c-.093-.146-.2-.307-.363-.531-3.424-5.75-19.686-24.5-20.795-48.161-.226-4.811.879-8.252-1.446-14.09a79.624 79.624 0 00-10.124-17.7c-2.971-3.988-6.472-8.082-7.976-12.038-1.2-3.165-2.727-6.148-4-9.3-.683-1.713-1.392-3.381-2.1-5.01-.19-.429-.371-.859-.569-1.291-1.114-2.494-2.239-4.854-3.326-7.043l-68.87-70.229c-.031.023-.052.078-.088.1a1.314 1.314 0 01-1.43-.439v.013l-.106-.11-.032-.033-111.738-113.951c-.037-.036-.075-.073-.112-.114a6.221 6.221 0 01-1.3-2.435 7.224 7.224 0 01-.292-3.068 2.991 2.991 0 01.3-.979 1.272 1.272 0 01.555-.566c.471-.224 1.026 0 1.541.531l111.885 114.105v.005a6.259 6.259 0 011.294 2.424c.008.029.007.056.018.087l62.551 63.788c-1.361-2.372-2.219-3.738-2.219-3.738l77.273 78.787s.464.765 1.31 2.285c.233.4.423.793.64 1.191l3.541 3.611v.005a4.2 4.2 0 01.869 1.624c.427 1.414.255 2.8-.379 3.1-.014.006-.03 0-.044 0 .381.852.762 1.7 1.168 2.558 2.39 5.056 6.069 10.338 9.349 15.491 1.572 2.471 3.151 4.95 4.9 7.394 2.675 3.735 5.731 7.366 8.331 11.115 4.35 6.274 7.78 12.892 7.579 17.94-.051 1.418-.139 2.83-.283 4.229l-.116 1.124c-.087.637-.117 1.3-.175 1.949-.017.336-.022.68-.058 1.021a42.535 42.535 0 00-.163 5.3c.273 14.533 3.674 16.824 9.123 28.2 2.161 4.449 4.295 8.371 6.126 11.543 3.083 5.333 5.378 8.545 5.378 8.545z" transform="translate(-724.691 514.251)" fill="url(#g)"/><path d="M699.01 1077.088v58.178a29.788 29.788 0 00-1.9-3c0-.1-.054-.1-.106-.158a40.844 40.844 0 00-7.848-8.373 32.225 32.225 0 00-25.019-7.321c-.474.052-.895.1-1.316.157a35.525 35.525 0 01-7.164-.211c-16.272-2.424-25.438-17.064-27.071-19.8a2.107 2.107 0 00-.212-.472v-56.763a23.311 23.311 0 002.214 4.268c3.265 5.266 10.743 13.745 25.069 15.432a40.055 40.055 0 006.268.315h.9c21.858-.106 32.761 12.9 35.5 16.7.473.68.685 1.048.685 1.048z" fill="#f5620e"/><path d="M691.741 1121.731c-.052 1.79-.052 3.266 0 4.265a27.5 27.5 0 00-2.581-2.263 32.437 32.437 0 00-19.7-7.531c-.051-3.951-.051-12.168-.314-20.7 0-1.528-.053 3.075-.107 1.547-.1-3.318-.737-12.694-.841-14.116a51.466 51.466 0 00-1.055-7c-.632-2.529-2.527-6-4.318-9.481a58.027 58.027 0 01-3.215-7.11v-.052a9.338 9.338 0 011.212.052h2a46.924 46.924 0 0120.171 4.319c8.849 3.949 9.9 6.478 9.9 6.478.263 1.791.473 3.794.631 5.952q.077 1.659.159 3.476c.533 16.009-1.627 31.787-1.942 42.164zM638.599 1108.3a47.573 47.573 0 01-9.953-11.745c-.054-.1-.054-.155-.109-.155-.1-.212-.158-.317-.158-.317v-56.758a23.311 23.311 0 002.214 4.268 37.659 37.659 0 003.844 5c.738 5.794 1.317 12.694 1.791 19.909v.054c.1 2.212.263 4.477.367 6.74.473 8.217.79 10.3 1.107 17.362.053 1.105.1 2.159.1 3.212.27 5.11.531 9.429.797 12.43z" fill="#fc7e14"/><path d="M701.681 1243.854a.779.779 0 00.469.621 2.287 2.287 0 001.176.244 2.48 2.48 0 00.547-.08 1.9 1.9 0 00.482-.2.768.768 0 00.441-.64l-.014-85.742-3.115.006.013 85.736z" fill="#bab4a7"/><path d="M704.343 1158.714c.6-.361.588-.929-.029-1.272a2.437 2.437 0 00-2.2.035.671.671 0 00.029 1.272 2.432 2.432 0 002.2-.035z" fill="#e6d9d1"/><g><path d="M702.191 1157.815a.528.528 0 00.315.417 1.557 1.557 0 00.792.164 1.684 1.684 0 00.367-.054 1.235 1.235 0 00.323-.133.517.517 0 00.3-.43l-.008-84.865-2.094.006.009 84.859a.138.138 0 00-.004.036z" fill="#bab4a7"/><path d="M703.979 1073.356c.4-.242.4-.625-.021-.855a1.639 1.639 0 00-1.48.023.451.451 0 00.019.855 1.638 1.638 0 001.482-.023z" fill="#84958b"/></g><g fill="#fff"><path d="M642.408 1099.479a1.562 1.562 0 01-.19.43.925.925 0 01-.256.256.721.721 0 01-.291.107 1.1 1.1 0 01-.3-.018 1.335 1.335 0 01-.3-.115 1.878 1.878 0 01-.262-.18q-.757-.65-1.494-1.408a2.875 2.875 0 01-.346-.465 2.682 2.682 0 01-.295-.64 3.277 3.277 0 01-.149-.741 1.887 1.887 0 01.087-.763c.133-.433.274-.871.407-1.3a.917.917 0 01.308-.5.6.6 0 01.407-.116 1.046 1.046 0 01.439.153 2.078 2.078 0 01.389.3q.733.716 1.481 1.324a2.173 2.173 0 01.5.568 2.278 2.278 0 01.265.623 2.408 2.408 0 01.068.61 2.466 2.466 0 01-.071.511c-.13.447-.26.906-.397 1.364zm-.444-2a.569.569 0 00.005-.377.681.681 0 00-.222-.3c-.5-.412-.992-.859-1.477-1.338-.113-.11-.2-.155-.276-.149s-.136.08-.173.205c-.138.445-.27.886-.407 1.324a.636.636 0 00-.006.38.858.858 0 00.214.358c.487.5.985.958 1.485 1.382.111.1.209.134.284.106a.307.307 0 00.174-.232c.133-.456.268-.907.399-1.361zM646.795 1099.839a20.384 20.384 0 01-1.958-.944.327.327 0 00-.3-.046.381.381 0 00-.175.258c-.262.948-.535 1.9-.8 2.843-.29-.173-.574-.358-.864-.551.273-.939.541-1.878.811-2.82a1.519 1.519 0 01.192-.435 1.173 1.173 0 01.25-.274.947.947 0 01.3-.141 1.272 1.272 0 01.305-.035 1.372 1.372 0 01.3.052 1.412 1.412 0 01.268.107 21.49 21.49 0 001.957.935c-.097.349-.193.701-.286 1.051zM650.43 1103.025a1.9 1.9 0 01-.188.464 1.518 1.518 0 01-.335.425 1.349 1.349 0 01-.48.274 1.1 1.1 0 01-.617-.009c-.544-.153-1.083-.323-1.621-.518a1.334 1.334 0 01-.38-.226 1.308 1.308 0 01-.331-.406 1.654 1.654 0 01-.182-.573 1.86 1.86 0 01.06-.724 1.887 1.887 0 01.192-.446 1.335 1.335 0 01.335-.384 1.092 1.092 0 011.079-.153c.534.189 1.065.35 1.6.5-.086.339-.172.675-.259 1.013-.542-.148-1.078-.315-1.612-.5a.327.327 0 00-.317.031.552.552 0 00-.156.654.411.411 0 00.242.215q.8.285 1.607.51a.35.35 0 00.318-.055.521.521 0 00.184-.3q.192-.743.379-1.487a.521.521 0 00-.024-.359.372.372 0 00-.242-.194q-.976-.266-1.947-.621c.09-.334.173-.668.263-1q.966.351 1.94.614a1.237 1.237 0 01.713.533 1.417 1.417 0 01.194.524 1.653 1.653 0 01-.047.71c-.116.494-.244.989-.368 1.488zM655.055 1105.228c-.307-.023-.612-.051-.919-.084.2-.822.39-1.646.582-2.467a1.022 1.022 0 00.025-.383.709.709 0 00-.1-.3.647.647 0 00-.2-.211.734.734 0 00-.289-.1c-.529-.065-1.057-.141-1.58-.228q-.409 1.687-.826 3.375c-.3-.049-.605-.1-.911-.165q.491-1.959.971-3.911a.61.61 0 01.085-.2.474.474 0 01.138-.152.531.531 0 01.173-.085.436.436 0 01.184-.01c.671.124 1.349.222 2.023.307a1.459 1.459 0 01.35.089 1.626 1.626 0 01.339.187 1.312 1.312 0 01.3.293 1.361 1.361 0 01.213.4 1.755 1.755 0 01.094.525 2.682 2.682 0 01-.073.654c-.198.819-.386 1.641-.579 2.466zM659.939 1105.881a2.149 2.149 0 01-.165.487 2.33 2.33 0 01-.244.381 1.621 1.621 0 01-.295.275 1.568 1.568 0 01-.319.185 1.618 1.618 0 01-.317.1 1.362 1.362 0 01-.289.029c-.562-.014-1.117-.032-1.676-.057.078-.359.163-.716.244-1.07q.838.039 1.669.063a.433.433 0 00.307-.1.59.59 0 00.162-.316q.366-1.673.722-3.333a.436.436 0 00-.023-.318.277.277 0 00-.255-.118q-.818-.042-1.636-.088a.37.37 0 00-.293.1.523.523 0 00-.164.3c-.108.479-.214.958-.324 1.438a.412.412 0 00.024.325.3.3 0 00.255.126c.548.031 1.1.052 1.646.073-.076.352-.15.7-.231 1.057-.555-.018-1.107-.042-1.661-.068a1.159 1.159 0 01-.271-.048 1.064 1.064 0 01-.261-.125 1.129 1.129 0 01-.232-.206.96.96 0 01-.166-.3 1.312 1.312 0 01-.067-.4 1.661 1.661 0 01.051-.5c.111-.48.219-.965.328-1.443a1.8 1.8 0 01.1-.318 1.545 1.545 0 01.167-.325 1.772 1.772 0 01.234-.307 1.528 1.528 0 01.3-.248 1.481 1.481 0 01.367-.158 1.216 1.216 0 01.432-.044c.54.037 1.086.062 1.628.095a.93.93 0 01.266.048 1.015 1.015 0 01.263.12.976.976 0 01.23.2 1.033 1.033 0 01.17.291 1.361 1.361 0 01.077.383 1.744 1.744 0 01-.043.483q-.35 1.666-.71 3.331zM665.557 1102.759a1.7 1.7 0 01-.154.45 1.671 1.671 0 01-.3.442 1.471 1.471 0 01-.458.333 1.285 1.285 0 01-.617.118c-.551-.022-1.1-.041-1.652-.056.066-.331.134-.658.2-.986q.824.027 1.645.068a.413.413 0 00.313-.114.573.573 0 00.164-.311.379.379 0 00-.052-.319.329.329 0 00-.251-.13c-.545-.029-1.093-.054-1.638-.078a.415.415 0 00-.315.118.615.615 0 00-.167.316q-.151.725-.3 1.451a.394.394 0 00.048.327.318.318 0 00.261.125c.551.014 1.1.032 1.65.051-.066.326-.134.655-.2.982-.554-.017-1.113-.03-1.665-.041a1.172 1.172 0 01-.4-.086.975.975 0 01-.358-.255 1.027 1.027 0 01-.224-.456 1.522 1.522 0 01.014-.675c.1-.489.2-.983.306-1.466a1.95 1.95 0 01.162-.464 1.892 1.892 0 01.312-.459 1.658 1.658 0 01.46-.337 1.233 1.233 0 01.607-.115q.816.041 1.632.091a1.087 1.087 0 01.39.1 1 1 0 01.359.269 1.118 1.118 0 01.227.453 1.406 1.406 0 01.001.654zM672.469 1104.89a1.437 1.437 0 01-.136.43 1.339 1.339 0 01-.222.316 1.438 1.438 0 01-.277.216 1.3 1.3 0 01-.31.132 1.415 1.415 0 01-.31.059 1.612 1.612 0 01-.286-.006c-.56-.072-1.117-.131-1.677-.185a1.3 1.3 0 01-.416-.1.981.981 0 01-.3-.2 1 1 0 01-.2-.27 1.149 1.149 0 01-.11-.308 1.527 1.527 0 01-.037-.321 1.78 1.78 0 01.026-.3c.082-.448.165-.893.248-1.341a1.467 1.467 0 01.64-1.017 1.262 1.262 0 01.459-.182 1.418 1.418 0 01.426-.017c.546.076 1.091.163 1.644.26-.055.314-.111.635-.166.951-.552-.09-1.1-.169-1.646-.239a.374.374 0 00-.3.065.435.435 0 00-.146.278c-.08.441-.16.876-.239 1.32a.416.416 0 00.037.31.329.329 0 00.257.132q.835.087 1.669.2a.383.383 0 00.3-.062.455.455 0 00.144-.271c.254-1.437.5-2.862.737-4.274.3.061.6.128.908.2-.229 1.392-.469 2.808-.717 4.224zM677.394 1106.059a1.2 1.2 0 01-.136.377.953.953 0 01-.291.332 1.171 1.171 0 01-.456.2 1.451 1.451 0 01-.63-.029c-.571-.139-1.137-.263-1.7-.376a1.49 1.49 0 01-.41-.15 1.369 1.369 0 01-.383-.3 1.3 1.3 0 01-.251-.458 1.283 1.283 0 01-.027-.625 1.455 1.455 0 01.141-.408 1.168 1.168 0 01.29-.375 1.115 1.115 0 01.452-.235 1.222 1.222 0 01.617.008c.559.128 1.122.277 1.686.434-.047.284-.091.571-.139.856-.568-.153-1.131-.289-1.694-.414a.36.36 0 00-.316.052.366.366 0 00-.151.264.354.354 0 00.074.307.453.453 0 00.268.162c.561.121 1.125.249 1.691.4a.388.388 0 00.317-.033.338.338 0 00.152-.248q.1-.628.2-1.247a.4.4 0 00-.071-.311.484.484 0 00-.27-.187c-.686-.2-1.368-.374-2.046-.53.049-.29.1-.58.145-.871q1.011.246 2.037.554a1.614 1.614 0 01.409.194 1.545 1.545 0 01.387.343 1.431 1.431 0 01.263.476 1.25 1.25 0 01.041.6c-.063.407-.131.826-.199 1.238zM682.093 1106.194c-.569-.253-1.14-.491-1.7-.716-.137.886-.277 1.774-.418 2.676-.33-.117-.659-.226-.984-.332.15-.915.289-1.818.431-2.717-.416-.156-.827-.3-1.24-.439q.068-.436.137-.869c.41.145.822.293 1.237.456.055-.384.12-.766.176-1.15.321.13.644.267.966.406-.054.374-.115.753-.172 1.13.56.233 1.127.479 1.7.738q-.068.403-.133.817zM686.649 1109.931a.723.723 0 01-.13.3.609.609 0 01-.3.213 1.114 1.114 0 01-.484.041 2.069 2.069 0 01-.678-.215c-.618-.3-1.228-.575-1.833-.841a2.283 2.283 0 01-.442-.254 2.138 2.138 0 01-.416-.381 1.606 1.606 0 01-.286-.494 1.123 1.123 0 01-.057-.584 1.019 1.019 0 01.129-.34.72.72 0 01.289-.266.956.956 0 01.47-.087 1.737 1.737 0 01.655.186q.9.43 1.822.911-.058.368-.114.738c-.617-.312-1.224-.609-1.825-.885a.44.44 0 00-.335-.043.23.23 0 00-.149.2.383.383 0 00.092.306.758.758 0 00.292.224q.9.407 1.822.862a.486.486 0 00.339.066.2.2 0 00.152-.179q.081-.539.165-1.076a.412.412 0 00-.089-.306.811.811 0 00-.3-.255c-.747-.395-1.483-.763-2.212-1.107.04-.253.076-.507.115-.76q1.089.531 2.207 1.137a2.747 2.747 0 01.449.306 2.669 2.669 0 01.432.433 2.054 2.054 0 01.309.522 1.064 1.064 0 01.07.562c-.059.353-.109.71-.159 1.066z"/></g><path d="M663.296 1094.787l.062.01-.122-.024zM667.279 1069.475l-.062-.007c.042.007.083.01.124.017z" fill="#212e60" style="mix-blend-mode:screen;isolation:isolate"/><g fill="#fff"><path d="M667.338 1071.48a2.438 2.438 0 012.684 2.862q-.892 9.359-1.794 18.23a2.662 2.662 0 01-3.3 2.358c6.584 1.3 12.425-2.669 13.147-9.983.661-7.683-4.197-14.638-10.737-13.467zM661.827 1091.404q.888-8.125 1.8-16.646a3.948 3.948 0 013.308-3.233c-6.62 1.074-12.552 5.651-13.154 10.743-.662 4.991 4.124 10.871 10.749 12.573a3.414 3.414 0 01-2.703-3.437z"/></g><g><path d="M793.312 1169.902l10.936-6.334v-10.36l-10.936 6.33z" fill="#d1d3d4"/><path d="M821.139 1183.73a10.409 10.409 0 01.28 1.929 22.066 22.066 0 01-1.492 7.371c-.787 2.326-2.409 3.25-3.816 5.044a11.382 11.382 0 00-2.145 5.521c-.573 4.145.259 8.308.515 12.441a20.76 20.76 0 01-.221 5.477c-.242 1.175.31 3.633-1.968 3.235s-4.592.253-6.933-.4a4.764 4.764 0 01-3.07-4.2v-8.434c0-3.066-.769-3.066-.769-6.133s-.77-.767 0-5.367a51.47 51.47 0 00.769-7.667l-.769-4.6z" fill="#e6e7e8"/><path d="M800.754 1226.928c-1.4.62-1.321 3.173-.086 3.779 1.271.622 6.242 4.835 8.35 5.37 2 .513 4.251-.8 4.155-2.724-3.075-3.965-11.019-7.045-12.419-6.425z" fill="#303033"/><path d="M803.195 1221.135s.6 3.892.245 4.239c-.4.392-1.287.078-2.687.7s-1.321 3.173-.086 3.78c1.272.622 6.242 4.829 8.35 5.368 2 .513 4.251-.8 4.155-2.723a91.268 91.268 0 01-.046-12.2z" fill="#e6e7e8"/><path d="M779.173 1232.561c-1.3.577-1.485 3.616-.327 4.179 1.189.578 8.077 2.939 10.041 3.443 1.869.483 3.573-.369 3.573-1.852-.021-.409-.053-.789-.092-1.145-.75-6.504-11.89-5.2-13.195-4.625z" fill="#303033"/><path d="M798.523 1150.266a60.7 60.7 0 00-6.712 5.542c-4.471 7.194 1.888 22.073.066 28.934-.616 2.15 9.882 7.765 14.438 8.1 1.8.152 7.86-4.072 7.86-4.072l3.012-38.325s-14.193-3.037-18.664-.179z" fill="#fff"/><path d="M806.347 1128.249a2.63 2.63 0 011.4 2.344l-2.981-2.07.69-.436s.589.122.891.162z" fill="#535359"/><path d="M794.504 1145.097a1.537 1.537 0 01.091-1.421l1.629.354-.214 1.575a4.87 4.87 0 01-1.506-.508z" fill="#e6e7e8"/><path d="M793.262 1139.983a9.459 9.459 0 108.005-10.718 9.459 9.459 0 00-8.005 10.718z" fill="#3576ab"/><path fill="#a7a9ac" d="M796.296 1144.696l2.49678-.363168.49392 3.3957-2.49678.363168z"/><path d="M797.056 1148.449a2.061 2.061 0 01-.405-.658 3.163 3.163 0 01.179-2.056 1.562 1.562 0 011.48-1.025l12.444.116a1.561 1.561 0 011.53 1.338l.018.123c.283 1.968-2.255 3.348-3.739 3.945a11.991 11.991 0 01-5.886.805 10.208 10.208 0 01-3.395-1.069 7.814 7.814 0 01-2.226-1.519z" fill="#535359"/><path d="M796.959 1147.707l-.163-1.965-.068-.159.588-1.984 14.982-.655.184 1.286c.367 2.541-4.949 5.853-9.244 5.266a11.646 11.646 0 01-5.363-2.038z" fill="#a7a9ac"/><path d="M795.911 1144.346a2.262 2.262 0 01-1.407.751l1.652 2.983c1.929.282 1.37-2.209 1.441-2.673s.214-1.406.214-1.406z" fill="#fff"/><path d="M796.794 1144.498c3.671 4.189 8.471 4.859 13.044 1.5a9.183 9.183 0 001.634-13.672 11.4 11.4 0 00-6.646-3.591c-4.151-.672-9.377 1.778-10.286 6.2a12.245 12.245 0 00.659 6.3 9.8 9.8 0 001.595 3.263z" fill="#fff"/><path d="M797.045 1143.431c1.809-9.8 8.969-14.069 11.441-13.835-1-.859-5.891-1.976-8.526-.224-3.839 2.554-5.043 6.837-3.808 13.725z" fill="#a7a9ac"/><path d="M795.493 1143.061l.431-.5a.626.626 0 01.61-.155 2.793 2.793 0 011.735 1.78 1.184 1.184 0 01-.057 1.135l-.436.5-.3-.358a2.9 2.9 0 01-1.626-1.752 2.644 2.644 0 01-.086-.315z" fill="#fff"/><path d="M795.452 1144.175a2.791 2.791 0 001.737 1.782c.664.13.969-.452.678-1.306a2.8 2.8 0 00-1.735-1.781c-.667-.133-.971.453-.68 1.305z" fill="#e6e7e8"/><path d="M795.843 1144.251a1.9 1.9 0 001.178 1.207.4.4 0 00.5-.256.363.363 0 00.015-.067.47.47 0 01-.235 0 1.9 1.9 0 01-1.176-1.207 1.061 1.061 0 01-.059-.561c-.278.079-.384.424-.223.884z" fill="#fff"/><path d="M796.122 1143.928a1.9 1.9 0 001.176 1.207.47.47 0 00.235 0 1 1 0 00-.056-.562 1.908 1.908 0 00-1.173-1.208.5.5 0 00-.242.006 1.06 1.06 0 00.06.557z" fill="#d1d3d4"/><path d="M797.167 1154.304c-4.263-1.873-6.977 2.161-7.955 4.529-.976 2.743-1.865 5.516-2.725 8.3-.5 1.627-.9 3.286-1.4 4.915a16.135 16.135 0 01-.752 2.167 7.446 7.446 0 01-1.524 1.911 4.987 4.987 0 00-1.158 1.683c-.516 1.547-1.271 1.337-2.56 2.111a24.234 24.234 0 00-2.5-.428c-.516 0 0 0-1.032-.516s-1.547-1.032-3.095-.516-3.094 1.031-3.61 2.063a1.8 1.8 0 00-.516 1.032 3.27 3.27 0 00-.516 1.547s-.516 1.547.516 2.063 1.289-1.289 1.8-1.289a1.9 1.9 0 011.547.515c.516.516 1.032 1.032 3.095 1.032h2.579s.721 1.693 1.752 1.693a12.309 12.309 0 005.857-.851h.066a10.516 10.516 0 001.928-1.237 11.375 11.375 0 002.3-2.148c.7-.968 1.185-2.208 1.91-3.2 2.8-3.519 5.445-11.448 7.485-16.564s.656-7.865-1.492-8.812zM792.832 1226.733c-.065-.758-.561-1.457-.366-2.239a21.749 21.749 0 00.849-2.479c.247-1.9-.69-3.53-.767-5.4-.062-1.505-.066-3.341-1.72-3.988l-9.161-5.277a7.611 7.611 0 00-.074 1.521c.022.277-.414.935-.5 1.24a8.741 8.741 0 00-.265 1.643 31.994 31.994 0 00.282 6.05c.082.678.171 1.356.249 2.034a16.035 16.035 0 00-.1 3.442c.181 1.447.483 3.859 1.066 4.276.254.182.409.376.688.6a6.336 6.336 0 01-.028 2.092c-.941 1.164-2.921.593-4.293 1.2s-1.561 3.8-.344 4.392a104.7 104.7 0 009.915 3.574c1.372.481 3.782-.12 4.262-1.492a2.622 2.622 0 00.142-1.044c-.1-2.043-.183-4.088-.189-6.133 0-.616 0-1.232.021-1.848.021-.712.375-1.383.335-2.1.003-.023-.002-.043-.002-.064z" fill="#fff"/><path d="M807.887 1193.037l-8.325-3.59-4.514-3.289s.078-.256.141-.6c.15-.8-2.247-2.481-2.742-1.831a35.766 35.766 0 00-4.1 7.5c-1.694 3.894-3.5 7.684-5.519 11.421a17.369 17.369 0 00-2.255 5.282 9.371 9.371 0 00.258 3.443c.425 1.944 3.222.932 4.786 1.569a15.039 15.039 0 004.281.991 2.376 2.376 0 011.068.25c.894-.282 3.867-3.485 5.277-5.666a3.754 3.754 0 00.506-.709c.568-1.031 2.3-5.13 5.548-7.593a18.88 18.88 0 005.59-7.178z" fill="#fff"/><path d="M804.503 1187.96a34.759 34.759 0 01.54-4.8c.264-2.6.694-5.159.865-7.754.4-6.429-.924-12.884-.351-19.3a6.059 6.059 0 012.8-5.4 6.719 6.719 0 013.057-.218 43 43 0 004.987.066 41.045 41.045 0 016.693-.1 11.575 11.575 0 014.658.985c.739.39 1.07.46 1.453 1.138 1.571 2.776 1.506 6.219 1.655 9.31a112.994 112.994 0 01-.045 11.725c-.246 4.434-.38 9.18-2.642 13.136-1.687 2.95-4.4 3.742-7.5 4.6-2.768.765-5.86 2.086-8.745 2.013-2.192-.055-6.58.164-7.522-2.476-.342-.964.1-1.24.1-2.087z" fill="#d1d3d4"/><path d="M802.87 1186.468c.053-1.737.146-3.477.218-5.2.107-2.535.273-5.067.332-7.6q.038-1.638.024-3.278c-.04-4.638-.22-9.275-.18-13.914a13.239 13.239 0 011.072-5.762 6.163 6.163 0 011.661.013c.617.118.73-.09 1.353-.164a5.845 5.845 0 012.509-.1c.845.163 1.633 1.223 2.193 2.951a31.337 31.337 0 01.648 7.981l-.015 7.565c.052 5.158-.083 10.32-.4 15.409a28.081 28.081 0 01-.81 5.472c-.616 1.912-1.473 3.12-2.4 3.389a4.179 4.179 0 01-2.764-.184l-2.428-.708c-1.05-.306-1.027-1.463-1.042-2.359-.024-1.167-.006-2.342.029-3.511z" fill="#e6e7e8"/><path d="M804.335 1150.716s9.047-2.361 13.181-3.018c1.436-.228 3.038-.742 4.429-.239 2.572.929 5.37 2.218 6.919 4.585.244.373.514.585.243.964-.505.707-1.886 1.051-2.647 1.325a58.358 58.358 0 01-9.792 2.493 17.06 17.06 0 01-3.94.4c-3.388-.221-8.393-6.51-8.393-6.51z" fill="#f1f2f2"/><g><path d="M807.265 1164.735q.137 4.718.081 9.44c-.038 3.067-.026 6.184-.31 9.24a12.638 12.638 0 01-.642 2.863 2.722 2.722 0 01-1.795 1.911 5.409 5.409 0 01-2.946.217 10.755 10.755 0 01-2.893-1.242c-2.183-1.262-4.082-3.086-6.227-4.406-.957-.589-1.393 1.093-.439 1.68 3.837 2.362 7.282 6.661 12.214 5.632a4.792 4.792 0 003.134-1.914 9.228 9.228 0 001.077-3.079 23.168 23.168 0 00.367-3.766q.112-2.53.166-5.063.124-5.756-.046-11.512c-.032-1.118-1.773-1.122-1.741 0z" fill="#d1d3d4"/></g><path d="M805.663 1160.76a.482.482 0 01.689-.36 20.693 20.693 0 013.358 1.932c.5.463.343 2.5.179 3.859a.808.808 0 01-1.191.682 15.309 15.309 0 01-2.592-1.33c-.879-.633-.662-3.416-.443-4.783z" fill="#d1d3d4"/></g><g><g transform="translate(1056.514 777.142)"><circle cx="29.39" cy="29.39" fill="#f5bf5d" r="29.39"/><circle cx="29.39" cy="29.39" fill="none" r="29.39"/></g><path d="M2957.866 2407.942s-9.484-5.944-16.986-7.465-15.8 3.192-25.4 1.541c-4.969-.854-9.595-3.637-12.894-6.121a28.923 28.923 0 012.892-5.228c1.75 1.755 6.591 6.32 11.117 7.967 5.652 2.054 10.865-.18 20.387.367 8.15.47 18.155 5.392 20.855 6.792.043.713.05 1.426.029 2.147z" transform="translate(-1842.999 -1601.274)" fill="url(#b)"/><path d="M2920.6 2379.015c-.356-.158-.712-.314-1.073-.466.161-.108.319-.2.48-.3.26.113.518.223.778.338l.565.251a89.736 89.736 0 0025.264 6.878c.953.116 1.91.217 2.867.315 2.313.241 4.71.49 7.032.958a29.666 29.666 0 012.979.754c.121.2.241.4.358.6a29.835 29.835 0 00-3.429-.9c-2.3-.463-4.681-.712-6.986-.949-.961-.1-1.918-.2-2.877-.314a90.177 90.177 0 01-25.394-6.921z" transform="translate(-1848.898 -1596.949)" fill="url(#h)"/><path d="M2959.359 2398.323a24.671 24.671 0 01-6.61-1.707c-.426-.152-.852-.306-1.277-.453a46.039 46.039 0 00-16.632-2.748c-1.148.041-2.313.134-3.441.222a48.791 48.791 0 01-5.339.236 25.117 25.117 0 01-14.74-5.348 14.9 14.9 0 01-1.633-1.476c.1-.119.2-.241.306-.356a14.208 14.208 0 001.614 1.471 24.653 24.653 0 0014.466 5.246 48.884 48.884 0 005.289-.231c1.133-.093 2.308-.185 3.464-.222a46.465 46.465 0 0116.8 2.767c.426.147.851.3 1.282.458a25.406 25.406 0 006.323 1.675c.045.155.086.313.128.466z" transform="translate(-1845.47 -1599.888)" fill="url(#i)"/><path d="M2953.278 2430.3c-.083.162-.171.324-.265.481-.308.023-.62.046-.924.059-2.244.1-5.241-.24-6.806-2.41a10.314 10.314 0 01-.805-1.443 4.516 4.516 0 00-1.586-2.143 3.141 3.141 0 00-1.884-.3 10.111 10.111 0 00-3.538 1.36 9.923 9.923 0 01-7.767 1.29l-.172-.023c-3.408-.421-6.82-.841-10.229-1.281a4.619 4.619 0 01-1.888-.527 1.731 1.731 0 01-.865-1.828 2.422 2.422 0 01.656-.994 3.187 3.187 0 00.45-.545 1.9 1.9 0 00-.389-2.165 3.923 3.923 0 00-2.243-1.037 17.043 17.043 0 00-6.44.593 20.659 20.659 0 01-5.7.717 10.251 10.251 0 01-3.692-.967c-.018-.176-.027-.357-.041-.533a9.79 9.79 0 003.766 1.037 20.228 20.228 0 005.574-.7 17.23 17.23 0 016.612-.6 4.365 4.365 0 012.5 1.17 2.345 2.345 0 01.452 2.721 3.7 3.7 0 01-.509.624 2.031 2.031 0 00-.545.8 1.292 1.292 0 00.662 1.319 4.222 4.222 0 001.7.463c3.408.439 6.819.859 10.232 1.28l.168.023a12.689 12.689 0 004.617.01 12.955 12.955 0 002.877-1.249 10.566 10.566 0 013.705-1.412 3.481 3.481 0 012.165.366 4.92 4.92 0 011.775 2.336 9.419 9.419 0 00.758 1.374c1.444 2.008 4.285 2.314 6.409 2.22.4-.021.807-.049 1.21-.086z" transform="translate(-1841.799 -1610.864)" fill="url(#j)"/><path d="M2941.116 2452.35c-.161.055-.313.1-.476.152a13.2 13.2 0 01-1.161-1.832c-.087-.157-.18-.315-.267-.472a15.708 15.708 0 00-6.575-6.551c-2.911-1.379-6.254-1.466-9.437-1.36-3.752.13-8.013.588-11.191 2.989l-.279-.365c3.278-2.485 7.629-2.951 11.455-3.085 3.238-.112 6.653-.019 9.651 1.406a16.158 16.158 0 016.777 6.736c.089.157.179.319.268.476a12.223 12.223 0 001.235 1.906z" transform="translate(-1846.181 -1619.076)" fill="url(#k)"/><g><path d="M2958.324 2384.188c-.258-.051-.517-.1-.768-.153a47.259 47.259 0 00-10.076-.961 3.082 3.082 0 01-1.193-.144c-.838-.329-1.147-1.17-1.443-1.985a6.584 6.584 0 00-.441-1.028 3.987 3.987 0 00-3.562-1.722 13.021 13.021 0 00-3.627.765l-.582.179a18.78 18.78 0 01-8.272.935 9.966 9.966 0 01-6.033-3.127c.144-.074.282-.153.426-.223a9.471 9.471 0 005.672 2.892 18.381 18.381 0 008.073-.916l.578-.181a13.362 13.362 0 013.761-.786 4.45 4.45 0 013.97 1.952 7.672 7.672 0 01.472 1.1c.271.755.535 1.463 1.178 1.717a2.634 2.634 0 001 .11 47.581 47.581 0 0110.19.972l.209.042c.164.183.322.374.468.562z" transform="translate(-1849.872 -1596.418)" fill="url(#l)"/></g><path d="M2893.564 2411.933s-8.865 6.552 1.334 9.435 44.294-5.178 57.609-12.585c6-3.338 2.147-5.81-2.489-7.281 0 0 9.542-3.74 15.305 1.124s-1.285 18.748-31.66 26.6c-32.851 8.5-52.435 3.209-49.273-9.435 1.835-7.335 9.174-7.858 9.174-7.858z" transform="translate(-1836.545 -1604.567)" opacity=".61" fill="url(#m)" style="mix-blend-mode:screen;isolation:isolate"/></g><g><g transform="translate(191.498 964.92)"><circle cx="51.15" cy="51.15" r="51.15" fill="#2d5cc3"/><g fill="#3fa090"><path d="M85.215 13.782a.891.891 0 01-.779.391 6.525 6.525 0 00-1.15.159.791.791 0 01-.735-.147 1.387 1.387 0 00-1.361-.123.328.328 0 00-.256.354c.009.129.023.268-.114.348a1.229 1.229 0 00-.393.453.765.765 0 01-.692.367c-.188 0-.376.013-.567 0a1.249 1.249 0 00-.779.212 2.8 2.8 0 01-1.947.333 1.667 1.667 0 00-1.1.092 4.468 4.468 0 01-1.262.428.989.989 0 01-.928-.187.738.738 0 00-.985.044c-.113.09-.222.182-.338.269-.071.054-.154.117-.237.079-.371-.171-.8-.13-1.164-.3a10.49 10.49 0 00-2.154-.616 6.8 6.8 0 01-1.02-.343 4.038 4.038 0 00-1.073-.425 9.966 9.966 0 00-1.532-.106h-1.105c-.129 0-.282-.021-.373.075-.323.344-.766.283-1.168.354-.112.022-.23 0-.332.076a10.482 10.482 0 00-1.674 1.474 1.354 1.354 0 01-.189.178 5.5 5.5 0 00-1 1.013 1.519 1.519 0 01-.4.389 4.015 4.015 0 01-1.019.566c-.324.1-.537.385-.851.5-.7.26-.678.238-.635 1.1a2.843 2.843 0 00.151.584c.03.125.075.248.1.375a.681.681 0 00.662.61 1.165 1.165 0 00.813-.235c.1-.079.2-.166.3-.244a.316.316 0 01.425.005 5.517 5.517 0 01.936 1.066c.131.164.076.324-.1.437a4.177 4.177 0 00-.353.242.249.249 0 00-.06.279.2.2 0 00.228.158 3.037 3.037 0 001.159-.3.9.9 0 01.555-.2c.219.011.31-.124.363-.3a3.057 3.057 0 00.171-.844.373.373 0 01.289-.424.9.9 0 00.266-.142c.446-.318.467-.628.077-1a1.833 1.833 0 00-.164-.142.643.643 0 01-.2-.884.634.634 0 01.314-.258c.127-.071.255-.137.381-.209a1.736 1.736 0 00.84-.834.668.668 0 01.609-.425c.187-.009.375.007.567.013a.192.192 0 01.184.091c.054.107-.042.154-.1.207a4.805 4.805 0 01-.879.692.784.784 0 00-.51.862 1.372 1.372 0 00.991 1.3.469.469 0 01.083.025.574.574 0 01.385.566c-.028.315-.15.5-.464.538a.719.719 0 00-.674.668c-.018.1-.037.2-.059.3-.129.562-.453.853-.956.795a2.187 2.187 0 00-.428.038 7.627 7.627 0 00-1.4.415c-.13.036-.242.092-.346-.05a.67.67 0 00-.925-.205.415.415 0 00-.062.046.433.433 0 01-.448.027c-.378-.19-.485-.345-.352-.754a1.941 1.941 0 00.049-.81.262.262 0 00-.256-.261h-.033a1 1 0 00-.726.6 2.2 2.2 0 00-.089 1.013.409.409 0 01-.276.478c-.212.089-.413.207-.631.283a1.585 1.585 0 00-.822.611 2.775 2.775 0 01-1.008.786c-.177.11-.343.2-.418.4-.123.332-.5.314-.728.5-.131.1-.272 0-.408-.043-.2-.064-.434-.092-.546.116a.754.754 0 01-.767.37 1.673 1.673 0 00-.6.094c-.085.03-.162.071-.168.173a.662.662 0 00.409.5c.583.035.873.454 1.17.864a.857.857 0 01.118.862 1.879 1.879 0 00-.108.461c-.053.381-.127.435-.5.43a2.332 2.332 0 01-.3-.014c-.768-.12-1.544-.1-2.317-.163a.358.358 0 00-.25.052c-.282.2-.693.311-.513.828.066.193-.1.425-.039.637a1.152 1.152 0 01-.071.716 5.972 5.972 0 01-.286.581c-.048.1-.142.231-.051.322.244.236.193.528.2.811 0 .221.116.312.323.312a1.556 1.556 0 00.218 0 1.1 1.1 0 01.953.293.753.753 0 00.8.161 1.177 1.177 0 01.667-.12 1.669 1.669 0 001.343-.654c.178-.165.254-.466.433-.676a.238.238 0 000-.207c-.1-.195 0-.327.107-.468a5.266 5.266 0 00.331-.454.6.6 0 01.47-.325 1.577 1.577 0 00.75-.49c.155-.142.093-.354.1-.535a.515.515 0 01.51-.517.436.436 0 01.1.009 5.433 5.433 0 01.632.13c.141.027.3.124.418.042.284-.192.61-.309.894-.5.354-.226.39-.25.7.007a.918.918 0 01.26.341 1.707 1.707 0 00.477.6 4.948 4.948 0 001.391.929 2.563 2.563 0 01.9.785.478.478 0 01-.1.668.467.467 0 01-.206.089 3.628 3.628 0 01-1.073.071c-.121 0-.244.02-.283.147s.062.212.162.271c.313.18.649.311.961.5a.238.238 0 00.385-.227.453.453 0 01.378-.492c.306-.09.366-.377.491-.616a.474.474 0 00-.044-.483c-.091-.185.017-.3.224-.291.141.006.227.117.344.166.153.064.25 0 .257-.171a.448.448 0 00-.249-.382c-.306-.212-.628-.4-.935-.623a1.452 1.452 0 00-.45-.228 1.07 1.07 0 01-.734-.553 1.306 1.306 0 00-.441-.566.727.727 0 01-.175-.19.5.5 0 01.048-.566.348.348 0 01.472-.06 2.991 2.991 0 01.8.712.949.949 0 00.627.43.785.785 0 01.437.254 1.056 1.056 0 00.308.235 1.274 1.274 0 01.7 1.2.532.532 0 00.066.375 11.311 11.311 0 00.849 1.244.581.581 0 01.193.425c0 .43.3.514.618.587.256.059.332.014.426-.232a2.014 2.014 0 00.136-1.651.227.227 0 01-.016-.084c-.028-.255.22-.653.424-.681a.686.686 0 01.778.566 3.571 3.571 0 01.013.519 1.6 1.6 0 00.294.979.836.836 0 00.736.45 1.71 1.71 0 01.778.225c.207.1.379.137.553-.026a.367.367 0 01.4-.061 3.2 3.2 0 01.607.212.788.788 0 00.854-.037.951.951 0 01.312-.142.5.5 0 01.627.329.271.271 0 01.01.039 2.1 2.1 0 01-.023.991 5.5 5.5 0 00-.282.9 3.213 3.213 0 01-.229.74 1.168 1.168 0 00-.065.878 9.954 9.954 0 00.433 1.076 6.966 6.966 0 00.975 1.673 2.438 2.438 0 01.424.751.712.712 0 00.284.372 2.035 2.035 0 01.587.735 3.005 3.005 0 01.254.912 1.282 1.282 0 00.648.969.814.814 0 01.288.257 7.36 7.36 0 01.958 1.764c.238.682.6 1.3.849 1.974a.986.986 0 00.538.538c.231.1.382-.052.549-.153a.733.733 0 01.124-.039 15.138 15.138 0 002.29-.984 1.569 1.569 0 01.458-.13 1.047 1.047 0 00.763-.526.987.987 0 01.431-.416 12.209 12.209 0 001.422-.782c.513-.354 1.049-.658 1.183-1.34a1.123 1.123 0 01.2-.381 3.737 3.737 0 00.536-1.032.4.4 0 00-.037-.406c-.163-.2-.318-.41-.486-.608a.525.525 0 00-.485-.235.5.5 0 01-.527-.293c-.062-.1-.143-.184-.2-.283-.359-.532-.741-.556-1.117-.058a.819.819 0 01-.438.335 2.849 2.849 0 01-1.034.016.184.184 0 01-.187-.178.219.219 0 01.012-.064c.173-.7-.218-1.077-.768-1.368a2.438 2.438 0 01-1.194-1.356.461.461 0 01.273-.591.454.454 0 01.254-.018c.512.071.709.453.856.868.07.194.1.424.3.5a10.376 10.376 0 001.485.778 1.2 1.2 0 00.827.02c.1-.045.212-.076.318-.132.216-.118.281-.088.4.134a1.354 1.354 0 01.083.2.589.589 0 00.523.444c.369.059.732.156 1.1.223a5.71 5.71 0 002.315.032 3.227 3.227 0 01.814-.088.637.637 0 01.519.257 3.906 3.906 0 00.855.845 1.1 1.1 0 01.487.643.792.792 0 00.387.5 1.423 1.423 0 01.439.413.477.477 0 00.634.2.97.97 0 01.166-.049.43.43 0 01.545.267.578.578 0 01.021.1c.014.283.149.534.161.8a7.691 7.691 0 00.667 2.226 1.564 1.564 0 00.252.5 2.123 2.123 0 01.354.689c.08.232.152.468.249.692.311.711.7 1.386.945 2.127a.9.9 0 00.213.325c.25.272.437.283.705.031.081-.079.153-.173.24-.247a1.631 1.631 0 00.78-1.505.774.774 0 01.03-.168 4.842 4.842 0 00.062-2.007.535.535 0 01.184-.55c.334-.3.619-.644.942-.936.371-.334.621-.747.949-1.1a2.415 2.415 0 01.566-.512c.307-.177.628-.377.619-.813a.321.321 0 01.155-.247 1.145 1.145 0 01.71-.283 3.578 3.578 0 00.707-.118A51.019 51.019 0 0085.83 13.529c-.064.009-.128.022-.2.027a.475.475 0 00-.415.226z"/><path d="M80.685 50.802a3.755 3.755 0 01-1.119.293c-.609.158-1.192.408-1.82.513a.822.822 0 01-.991-.6.241.241 0 01-.009-.045 1.245 1.245 0 00-.407-.822 8.471 8.471 0 01-.629-.713 1.043 1.043 0 00-.554-.434 1.15 1.15 0 01-.856-1.113 1.494 1.494 0 00-.413-.933 2.547 2.547 0 01-.736-1.563 2.028 2.028 0 00-.5-1.179 3.816 3.816 0 01-.819-1.3c-.065-.19-.177-.367-.243-.553-.178-.512-.642-.9-.575-1.534a4.4 4.4 0 00-.251-1.128 1.658 1.658 0 00-1-1.114.92.92 0 00-1.05.149.538.538 0 01-.636.059 2.094 2.094 0 00-.539-.153 7.727 7.727 0 01-1.661-.45 3.143 3.143 0 01-.725-.347.973.973 0 00-.831-.134 2.261 2.261 0 01-.334.083c-.283.016-.409.248-.566.43-.137.158-.059.315 0 .484.088.271-.051.445-.335.466a.575.575 0 01-.433-.166 1.448 1.448 0 00-.95-.365.513.513 0 01-.551-.389.777.777 0 00-.751-.545 1.817 1.817 0 00-.476 0 1.567 1.567 0 01-1.018-.3.607.607 0 01-.25-.824.436.436 0 01.031-.051.764.764 0 00.1-.413 2.541 2.541 0 01.022-.688.4.4 0 00-.3-.482h-.022a1.123 1.123 0 00-.682.029 1.175 1.175 0 01-.543.077c-.41.01-.841-.112-1.22.156a.271.271 0 01-.287-.008 1.2 1.2 0 00-.761-.035 6.18 6.18 0 01-1.448.212.784.784 0 00-.637.317.675.675 0 01-.271.2 5.738 5.738 0 01-1.6.336.932.932 0 01-.772-.175.42.42 0 00-.584.1.288.288 0 00-.038.071 2.294 2.294 0 00-.265.444 1.057 1.057 0 01-.553.566 2.465 2.465 0 00-1.254 1.505 2.9 2.9 0 01-.565 1.1c-.3.359-.555.778-1.061.9a.537.537 0 00-.36.343c-.092.208-.2.478-.371.566a1.094 1.094 0 00-.55.823 1.327 1.327 0 01-.141.317c-.274.485-.617.925-.86 1.438a1.823 1.823 0 00-.131 1.557 2.425 2.425 0 01.183 1.75 1.431 1.431 0 00-.053.3.931.931 0 01-.3.557 1.17 1.17 0 00-.367.892 3.145 3.145 0 00.637 1.756c.11.165.3.208.449.332.253.221.406.523.654.745a1.142 1.142 0 01.353.534 3.258 3.258 0 001.469 1.9 8.883 8.883 0 011.179.866.977.977 0 001.229.159 1.715 1.715 0 01.362-.141 2.277 2.277 0 011.427-.116 1.408 1.408 0 001.049.071c.458-.2.938-.379 1.387-.591a3.064 3.064 0 011.369-.293 1 1 0 011.073.761c.171.5.3.571.831.485a1.67 1.67 0 011.126.17c.45.254.523.416.434.944a3.669 3.669 0 00-.181.8 2.378 2.378 0 01-.2 1.054.5.5 0 00-.042.418 2.812 2.812 0 00.325.655c.3.365.584.752.891 1.115a1.927 1.927 0 01.495 1.031 1.734 1.734 0 00.283.718 1.363 1.363 0 01.24.819 3.2 3.2 0 00.3 1.468 1.233 1.233 0 01-.263 1.506 1.126 1.126 0 00-.34.681 12.75 12.75 0 01-.337 1.246 6.788 6.788 0 00-.126 1.239.639.639 0 00.156.4 4.614 4.614 0 01.444.887 3.723 3.723 0 00.62 1.181 1.251 1.251 0 01.32 1.034 2.032 2.032 0 00.033.817 3.064 3.064 0 01.143.849 1.821 1.821 0 00.424 1.246 3.316 3.316 0 01.967 1.86.165.165 0 00.016.04 1.544 1.544 0 01.154.936c-.1.3.153.625.2.991a.209.209 0 00.085.142 1.553 1.553 0 00.919.312 6.822 6.822 0 001.65-.289.491.491 0 01.212-.035 4.656 4.656 0 001.6-.3 2.729 2.729 0 001.291-.884 2.8 2.8 0 01.414-.441 2.213 2.213 0 00.6-.778 2.3 2.3 0 01.592-.792 1.788 1.788 0 00.565-.893 2.5 2.5 0 00.136-.456 1.486 1.486 0 01.891-1.187.875.875 0 00.446-.454 2.469 2.469 0 00.134-1.765 1.816 1.816 0 01-.09-.334 1.178 1.178 0 01.5-1.249 2.056 2.056 0 00.449-.461 1.129 1.129 0 01.5-.392 3.252 3.252 0 001.289-.925 1.761 1.761 0 00.46-1.387 3.94 3.94 0 01.037-1.2 1.6 1.6 0 00-.224-1.323 1.532 1.532 0 01-.354-.956 6.364 6.364 0 00-.186-1.706.768.768 0 01.12-.659 1.829 1.829 0 00.22-.42 3.3 3.3 0 01.987-1.491 1.244 1.244 0 00.223-.262c.266-.36.513-.735.8-1.077a2.843 2.843 0 01.876-.828 4.234 4.234 0 001.873-1.97c.487-.914.886-1.875 1.319-2.818a2.94 2.94 0 00.07-.293c.129-.394-.03-.8.064-1.2.049-.164-.189-.364-.33-.279zM2.635 39.993a.85.85 0 01.819-.077 8.534 8.534 0 001.567.245c.142.02.2-.07.269-.171a.849.849 0 01.5-.394c.267-.06.53-.13.8-.176a.544.544 0 01.637.253.378.378 0 00.458.212c.5-.071.76.206.693.7a1.539 1.539 0 00.024.557 3.6 3.6 0 00.525 1.274c.192.279.324.32.573.089a1.3 1.3 0 00.424-.92 4.562 4.562 0 00-.212-1.318 1.887 1.887 0 01.737-2.1 11.208 11.208 0 011.819-1.146 1.931 1.931 0 00.963-.724 2.9 2.9 0 00.39-.754 2.586 2.586 0 01.588-1.092c.327-.384.664-.756 1-1.128a2.135 2.135 0 011.35-.766 2.925 2.925 0 00.732-.255.335.335 0 00.238-.369.637.637 0 01.271-.557 6.406 6.406 0 01.849-.482 1.616 1.616 0 011.028-.194.368.368 0 01.388.273c.1.258.3.287.511.108.13-.111.246-.244.371-.365.094-.091.189-.2.33-.187.424.042.8-.221 1.226-.2a.885.885 0 00.295-.064.271.271 0 00.11-.471.444.444 0 00-.27-.125c-.156-.021-.311-.053-.465-.085a.6.6 0 01-.559-.643.549.549 0 01.037-.173.967.967 0 01.294-.521.676.676 0 00.252-.73c-.05-.2.057-.267.2-.325a1.89 1.89 0 011.021-.11 2.589 2.589 0 001.232-.058c.224-.071.385.142.286.364a1.237 1.237 0 01-.34.444 1.274 1.274 0 00-.34.591c-.063.175-.041.269.16.3a1.951 1.951 0 00.814.031 1.011 1.011 0 01.836.1 2.217 2.217 0 00.817.261.467.467 0 00.533-.66.826.826 0 010-.708c.179-.364.175-.372-.194-.516-.309-.122-.372-.267-.353-.591.025-.44.266-.815.323-1.248a.543.543 0 00-.2-.6c-.1-.067-.189-.137-.179-.274.02-.246-.154-.333-.34-.38-.484-.122-.611-.48-.629-.914-.01-.26 0-.52 0-.778a1.9 1.9 0 00-.429-1.2c-.22-.264-.294-.283-.566-.071a11.825 11.825 0 01-1.073.727.6.6 0 01-.723-.045c-.183-.158-.2-.325-.07-.628.028-.067.064-.128.093-.195.117-.265.1-.379-.128-.5a2.162 2.162 0 01-.517-.447 1.009 1.009 0 00-.561-.379 11.261 11.261 0 00-1.378-.1.618.618 0 00-.439.156 4.746 4.746 0 00-.615.994c.057.513-.238.769-.672.92a.607.607 0 00-.12.048c-.223.129-.243.238-.089.447.256.343.258.442.033.8a1.888 1.888 0 01-.616.591c-.383.245-.831.325-1.228.529-.186.094-.324.2-.31.418.022.354-.227.648-.22 1 0 .137-.143.244-.274.315-.113.062-.23.118-.346.175-.291.142-.453.092-.581-.2a.7.7 0 01.028-.7 6.248 6.248 0 01.5-.855c.1-.118.053-.223-.077-.268a2.194 2.194 0 00-.719-.132 1.949 1.949 0 01-1.316-.582 2.316 2.316 0 00-1.069-.6.448.448 0 01-.375-.408 1.1 1.1 0 00-.127-.5c-.168-.224-.063-.4.083-.581a3.671 3.671 0 01.636-.517 4.052 4.052 0 011.982-.9 1.7 1.7 0 00.936-.5.975.975 0 01.622-.262 1.332 1.332 0 011.042.326.332.332 0 00.429.042l.654-.338a.4.4 0 01.447.015.737.737 0 00.446.146.29.29 0 00.281-.168.209.209 0 00-.086-.266.808.808 0 01-.279-.471c-.094-.343-.031-.461.322-.483a1.151 1.151 0 00.632-.245c.321-.235.7-.4.879-.8.045-.1.16-.165.241-.247a1.452 1.452 0 00.3-.368.566.566 0 01.643-.319 3.753 3.753 0 00.647.022.9.9 0 01.8.341 1.169 1.169 0 00.443.387c.279.141.3.324.06.543a2.554 2.554 0 01-.6.417c-.127.061-.281.117-.321.271-.07.268-.287.3-.5.323a1.7 1.7 0 01-.723-.1.724.724 0 00-.9.451c-.052.154-.014.255.164.271a4.323 4.323 0 001.416.043.357.357 0 01.409.165 1.135 1.135 0 01.177.345.759.759 0 00.531.519q.427.158.85.321a.67.67 0 00.72-.1 9.915 9.915 0 01.79-.6.678.678 0 00.272-.919.614.614 0 00-.035-.058c-.065-.129-.134-.256-.192-.387-.043-.1-.062-.2.044-.27a.238.238 0 01.28.048c.168.122.252.314.4.456a.452.452 0 00.634.093.5.5 0 00.052-.047c.195-.151.386-.3.576-.459a.482.482 0 00.2-.651l-.015-.026a.7.7 0 00-.346-.425.96.96 0 01-.637-1.018.61.61 0 00-.27-.557 2.071 2.071 0 00-.977-.437 1.01 1.01 0 01-.817-.688.565.565 0 00-.465-.391 4.994 4.994 0 00-1.765-.065 11.162 11.162 0 01-1.2.079c-.275 0-.551-.02-.823.007a1.461 1.461 0 00-.784.2c-.278.208-.554.417-.819.637-.338.283-.368.413-.221.83.036.1.094.185.039.287a.614.614 0 01-.507.354c-.219.016-.442.018-.57-.212a2.2 2.2 0 01-.28-.812c-.033-.263-.23-.43-.423-.375a2.94 2.94 0 00-1 .4c-.318.233-.654.465-.5.982.091.294-.007.346-.268.507a.7.7 0 01-.582.022 1.623 1.623 0 00-.935 0 1.853 1.853 0 01-.667.118h-.057A50.984 50.984 0 001.046 40.869a3.39 3.39 0 01.719-.454 4.753 4.753 0 00.87-.422zM.555 48.453a.55.55 0 01.533.084 1.324 1.324 0 01.353.315 3.775 3.775 0 002.686 1.454.843.843 0 01.594.4 2.188 2.188 0 01.349.826 1.084 1.084 0 00.742.968 1.048 1.048 0 01.644.546.626.626 0 00.549.366.94.94 0 01.713.35c.125.161.316.12.481.079s.177-.178.167-.314a.47.47 0 01.088-.325.34.34 0 00.026-.4c-.1-.132-.274-.1-.4-.064a.921.921 0 01-.913-.249c-.086-.076-.171-.155-.26-.226a.914.914 0 01-.313-1.09 10.593 10.593 0 01.43-1.623 1.048 1.048 0 00.025-.556.29.29 0 00-.142-.207 1.743 1.743 0 00-1.454-.379 3.157 3.157 0 01-.6 0 .311.311 0 01-.316-.244.924.924 0 01.119-.86 4.339 4.339 0 00.471-.92c.153-.379.1-.822.425-1.153.142-.146-.008-.343-.238-.391a2.9 2.9 0 00-1.637.236.391.391 0 00-.269.354 2.708 2.708 0 01-.275.861.6.6 0 01-.712.425 3.423 3.423 0 00-.9.022 1.329 1.329 0 01-1.264-.653c-.083.831-.147 1.668-.187 2.509.025-.007.05-.01.075-.018.128-.047.276-.071.41-.123zM22.991 93.017c.174 0 .331-.024.362-.223s-.126-.278-.263-.359a.341.341 0 00-.169-.031 1.268 1.268 0 01-.617-.182 1.914 1.914 0 01-.99-.856 1.593 1.593 0 00-.452-.611c-.519-.464-.43-.632-.224-1.042a.341.341 0 00.056-.159c-.038-.322.18-.5.37-.693a.543.543 0 00.11-.762.543.543 0 00-.295-.2.72.72 0 01-.354-.954.815.815 0 01.047-.086.85.85 0 00.172-.77.38.38 0 01.124-.393 1.2 1.2 0 00.3-.658 1.493 1.493 0 01.282-.67 1.53 1.53 0 00.289-.667.8.8 0 01.54-.625c.1-.045.219-.071.327-.108.5-.187.948-.432.972-1.061a.557.557 0 01.052-.165 2.349 2.349 0 01.76-1.223 1.664 1.664 0 00.535-.617c.174-.365.331-.736.482-1.11a1.817 1.817 0 01.558-.951c.342-.232.258-.7.539-.961.063-.059.12-.124.185-.18a.618.618 0 00.23-.5 2.306 2.306 0 00-.065-.684 1.257 1.257 0 01.532-1.692 1.137 1.137 0 01.164-.071 1.879 1.879 0 01.435-.188 1.361 1.361 0 00.4-.168 1.859 1.859 0 011.046-.346c.338-.014.74-.006.882-.453.016-.046.081-.081.131-.109a.419.419 0 00.213-.439.942.942 0 01.2-.642 1.378 1.378 0 00.315-.837 1.2 1.2 0 01.2-.859.561.561 0 00.057-.336 1.59 1.59 0 01.025-.43 1.483 1.483 0 00-.037-.885 1.518 1.518 0 01.189-1.443 19.861 19.861 0 011.317-1.858.508.508 0 00.081-.1 2.922 2.922 0 00.346-2.523.829.829 0 00-.72-.648 1.507 1.507 0 01-.986-.566 2.225 2.225 0 00-.34-.333 1.417 1.417 0 00-1.219-.428 2.54 2.54 0 01-1.706-.5 25.532 25.532 0 00-2.639-1.184 1.119 1.119 0 01-.7-.79.855.855 0 00-.131-.4 1.986 1.986 0 01-.425-.977.946.946 0 00-.344-.677 2.749 2.749 0 01-.6-.551.481.481 0 00-.245-.173 4.374 4.374 0 00-1.43-.283 1.5 1.5 0 01-1.479-.849 1.365 1.365 0 00-.783-.7.68.68 0 01-.439-.5c-.054-.164.06-.3.094-.458s.1-.354-.112-.452a.887.887 0 00-.624-.125 2.6 2.6 0 01-.773.071.756.756 0 00-.523.158.666.666 0 01-.807.06 1.6 1.6 0 00-.7-.2 1.382 1.382 0 01-.708-.289 5.947 5.947 0 00-.979-.531 2.766 2.766 0 00-.839-.168.328.328 0 00-.312.1 1.886 1.886 0 01-1.061.519 1.19 1.19 0 00-1.044.889.942.942 0 01-1.055.6 1.655 1.655 0 00-.474-.016c-.07.006-.153.034-.158.118-.011.175-.115.381.116.5a.2.2 0 01.121.208.74.74 0 00.165.439 2 2 0 01.273 1.372 2.563 2.563 0 01-.325 1.194 4.687 4.687 0 01-.517.516c-.2.212-.293.512-.528.679a1.925 1.925 0 00-.678 1.26 1.274 1.274 0 00.069.933.814.814 0 01-.141 1.093.593.593 0 00-.19.468 1.642 1.642 0 00.636 1.356 1.959 1.959 0 01.738 1.184 1.451 1.451 0 00.361.676 4.854 4.854 0 01.87 1.285c.2.393.429.771.6 1.188a4.014 4.014 0 00.984 1.184c.028.028.08.032.12.048.3.128.615.246.916.385a4.8 4.8 0 011.455 1.132.974.974 0 01.171.391 8.326 8.326 0 01.221 2.1c.052 1 .079 2.014.189 3.016a1.691 1.691 0 01-.016.517 4.144 4.144 0 00-.009 1.33c.054.537.278 1.025.366 1.551a4.178 4.178 0 01.01 1.627 12.2 12.2 0 00-.156 1.325.5.5 0 00.037.3 5.7 5.7 0 01.5 1.736 2.363 2.363 0 00.51 1.167 3.469 3.469 0 01.768 2.026 1.326 1.326 0 00.2.609 1.637 1.637 0 01.24.687 2.507 2.507 0 00.424 1.251 2.164 2.164 0 01.113.231l.006.009c.82.711 1.66 1.4 2.525 2.06a.876.876 0 01.728.542c.193.141.39.277.585.416a1.266 1.266 0 01.448.063 2.591 2.591 0 00.997.109zM44.789 15.878c.657-.135.878-.492.721-1.159-.1-.4-.016-.532.367-.674a2.316 2.316 0 001.492-1.383.654.654 0 01.143-.309.776.776 0 00.235-.67.419.419 0 01.244-.466 7.682 7.682 0 011.4-.562 3.614 3.614 0 001.161-.316c.078-.044.155-.089.132-.195-.015-.086-.093-.1-.161-.125a2.328 2.328 0 00-.815-.051 4.3 4.3 0 01-1.543-.149 13.236 13.236 0 00-1.677-.392 7.6 7.6 0 00-2.793-.024 3.808 3.808 0 01-1.11.084 6.152 6.152 0 00-1.595.03 18.779 18.779 0 01-2.746.3 3.618 3.618 0 01-.729.058 22.169 22.169 0 00-2.746.153.371.371 0 00-.168.04 3.239 3.239 0 01-.921.228c-.531.056-1.018.316-1.554.339-.133.006-.311.024-.375.18-.075.2-.254.223-.412.277a6.847 6.847 0 01-1.448.2 7.632 7.632 0 00-.849.156.3.3 0 00-.254.338.933.933 0 00.577.788 1.557 1.557 0 00.894.091 4.787 4.787 0 011.841.091.983.983 0 01.842.952 1.2 1.2 0 01-.159.7.664.664 0 00.005.738 4.947 4.947 0 00.393.668c.231.272.158.42-.2.483a1.273 1.273 0 00-1.167 1.368v.013c-.049.325.119.655.088 1a2.036 2.036 0 00.188 1.05c.095.212.212.408.318.612.154.293.2.323.548.245a.759.759 0 01.779.248c.5.538.778.347 1.085.024a3.709 3.709 0 00.8-.954.625.625 0 01.22-.26 2.048 2.048 0 00.708-.795 1.273 1.273 0 011.132-.732 7.618 7.618 0 00.937-.115 4.014 4.014 0 001.836-.815 1.241 1.241 0 01.724-.364 14.893 14.893 0 001.577-.253 3.748 3.748 0 001.1-.348 4.228 4.228 0 01.935-.343zM80.387 67.02a3.191 3.191 0 00-.312-.849c-.1-.2-.241-.213-.36-.036a6.658 6.658 0 00-.586.955 2.055 2.055 0 01-1.519 1.339c-.189.035-.417.071-.514.279a1.777 1.777 0 00-.327 1.009 4.9 4.9 0 00.069.643 1.559 1.559 0 01-.354 1.37 1.206 1.206 0 00-.27.882 4.2 4.2 0 00.17 1.189 1.037 1.037 0 001.016.778 4.5 4.5 0 00.77-.265.376.376 0 00.188-.17 5.426 5.426 0 00.383-.867 19.922 19.922 0 01.7-2 8.125 8.125 0 00.557-1.673 2.25 2.25 0 01.327-.92 1.3 1.3 0 00.162-1.115 4.941 4.941 0 01-.1-.549zM51.021 23.92a2.178 2.178 0 00.633.442.569.569 0 01.324.521c-.008.228-.231.212-.4.241a.391.391 0 00-.36.368c-.012.1-.044.2-.054.3a6.71 6.71 0 01-.262.955c-.078.3.088.439.384.354a.408.408 0 00.117-.052 2.575 2.575 0 011.448-.338 2.29 2.29 0 00.784-.22.258.258 0 00.189-.216c0-.166.123-.25.222-.354.292-.3.27-.507-.119-.63a.565.565 0 01-.424-.473.744.744 0 00-.329-.53.387.387 0 01-.143-.158 2.606 2.606 0 01-.428-1.375.83.83 0 00-.831-.826.725.725 0 00-.082 0 .7.7 0 00-.733.375 1.042 1.042 0 00-.267.853 1.381 1.381 0 00.331.763zM47.26 17.515c-.213.027-.425.021-.641.057a3.14 3.14 0 01-1.657.015.973.973 0 00-1.056.279c-.142.122-.149.242 0 .354a1.04 1.04 0 01.354.524.511.511 0 00.468.379 3.423 3.423 0 011.105.181.432.432 0 00.113.008.8.8 0 00.178-.057 7.246 7.246 0 011.651-.6.839.839 0 00.411-.3.26.26 0 00.017-.369l-.017-.016a1.056 1.056 0 00-.926-.455zM12.21 45.657c-.141-.1-.308-.161-.451-.256-.286-.192-.653-.267-.886-.525a3.4 3.4 0 00-1.433-.849 2.185 2.185 0 00-1.024-.232 2.5 2.5 0 00-.862.154 1.3 1.3 0 00-.7.4c-.1.1-.283.233-.2.4.106.2.284.016.424 0 .27-.04.5-.25.78-.237a9.4 9.4 0 011.435.266.289.289 0 01.142.091 3.407 3.407 0 00.8.58.438.438 0 01.213.3c.071.3.137.365.4.283a.77.77 0 01.689.117.585.585 0 00.654-.036c.248-.158.256-.298.019-.456z"/><path d="M50.768 24.024a1.236 1.236 0 00-1.177.06 1.284 1.284 0 01-.571.365c-.294.053-.333.1-.289.41a.881.881 0 01-.158.692.351.351 0 00.01.471c.1.151.211.283.4.25a.606.606 0 00.372-.125 1.562 1.562 0 01.838-.313.289.289 0 00.264-.19 1.187 1.187 0 00.156-.49.494.494 0 01.207-.437.416.416 0 00.08-.581.43.43 0 00-.132-.112zM15.135 46.479c-.327-.237-.761-.247-1.081-.5-.064-.05-.194-.02-.3-.018-.127 0-.256.013-.3.016a1.328 1.328 0 00-.252-.014c-.162.03-.364-.142-.481.044s.112.264.177.4c.07.154.039.242-.141.263s-.37.052-.553.089a.168.168 0 00-.156.175.156.156 0 00.142.141 5.257 5.257 0 001.659.182c.4-.079.811-.152 1.216-.232.132-.027.264-.05.29-.206.029-.176-.098-.253-.22-.34z"/></g></g><path d="M293.796 1016.071a51.476 51.476 0 00-.431-6.551 50.775 50.775 0 00-5.334-17.034c-.022-.042-.041-.084-.064-.125q-.46-.877-.953-1.733c-.056-.1-.111-.194-.168-.291q-.473-.809-.974-1.6c-.075-.118-.151-.236-.227-.354q-.5-.77-1.018-1.522c-.081-.115-.164-.23-.245-.345-.359-.5-.721-1-1.1-1.5-.062-.08-.125-.159-.187-.239a51.513 51.513 0 00-8.9-8.957c7.134 8.83 24.585 48.612-.111 69.411-34.03 28.661-72.01 1.325-73.052.562a51.483 51.483 0 0010.672 10.994 51.142 51.142 0 0082.091-40.721z" fill="#231f20" opacity=".16" style="isolation:isolate"/></g></g></g></svg>