<svg xmlns="http://www.w3.org/2000/svg" viewBox="0 0 79.6 79.62"><defs><style>.cls-1{fill:#fff;}</style></defs><g id="Layer_2" data-name="Layer 2"><g id="Layer_1-2" data-name="Layer 1"><path class="cls-1" d="M79.6,39.72A39.8,39.8,0,1,1,39.94,0,39.79,39.79,0,0,1,79.6,39.72Zm-32.92-.16c3.38-3.1,6.07-5.34,8.48-7.85,2.82-3,7.63-5.55,3.58-10.69-2.43-3.08-5.46-2.12-10.67,3.26-2.53,2.61-4.79,5.48-7.79,8.95l-10-10.75c-2.61-2.83-5.63-4.8-8.94-1.44s-.93,6.35,1.74,8.91c3.21,3.08,6.44,6.12,10.24,9.73L22.94,49.36c-2.81,2.61-4.83,5.56-1.38,8.9,3.2,3.11,6.08,1.27,8.53-1.45,3.1-3.44,6.15-6.92,9.63-10.86,4.24,4.47,7.53,8,10.87,11.45C53.11,60,56,61,58.79,58c2.55-2.73,1.67-5.51-.81-7.88C54.5,46.84,51,43.57,46.68,39.56Z"/></g></g></svg>