<svg xmlns="http://www.w3.org/2000/svg" viewBox="0 0 160.74 125.98"><defs><style>.cls-1{isolation:isolate;}.cls-2,.cls-3{fill:#fff;}.cls-3{mix-blend-mode:screen;}</style></defs><g class="cls-1"><g id="Layer_2" data-name="Layer 2"><g id="Layer_1-2" data-name="Layer 1"><path class="cls-2" d="M14.15,116.13a4.77,4.77,0,0,1-.2,1.42,4.09,4.09,0,0,1-.53,1.11,3.55,3.55,0,0,1-.77.82,4.57,4.57,0,0,1-.92.55,4.74,4.74,0,0,1-1.89.41H4.3a4.83,4.83,0,0,1-1.39-.22,4,4,0,0,1-1.4-.74,4.21,4.21,0,0,1-1.08-1.33,4.28,4.28,0,0,1-.43-2V112a4.25,4.25,0,0,1,.43-2,4.21,4.21,0,0,1,1.08-1.33,4,4,0,0,1,1.4-.74,4.83,4.83,0,0,1,1.39-.22H9.84a4.45,4.45,0,0,1,2,.42,4,4,0,0,1,1.33,1.07,4.39,4.39,0,0,1,.74,1.4,4.92,4.92,0,0,1,.23,1.4ZM11.08,112a1.28,1.28,0,0,0-.32-1,1.29,1.29,0,0,0-.92-.3H4.32a1.26,1.26,0,0,0-.93.31,1.23,1.23,0,0,0-.32.91v4.16a1.25,1.25,0,0,0,.32.92,1.22,1.22,0,0,0,.93.32H9.84a1.21,1.21,0,0,0,.93-.32,1.25,1.25,0,0,0,.31-.92Z"/><path class="cls-2" d="M27.93,110.75H21a1.27,1.27,0,0,0-.94.31,1.19,1.19,0,0,0-.32.91v8.47H16.69V112a4.41,4.41,0,0,1,.2-1.41,3.82,3.82,0,0,1,.54-1.11,3.5,3.5,0,0,1,.77-.81,4.33,4.33,0,0,1,.91-.55,4.55,4.55,0,0,1,1-.31,4.45,4.45,0,0,1,.92-.1h6.93Z"/><path class="cls-2" d="M42.14,116.21a5.07,5.07,0,0,1-.22,1.38,4,4,0,0,1-4,2.85H32.37a4.7,4.7,0,0,1-1.37-.22,4.06,4.06,0,0,1-2.43-2,4.22,4.22,0,0,1-.43-2,4.85,4.85,0,0,1,.23-1.38,4.2,4.2,0,0,1,.72-1.37,4,4,0,0,1,1.32-1.06,4.17,4.17,0,0,1,2-.43h5.54v2.93H32.37a1.22,1.22,0,0,0-1,.39,1.4,1.4,0,0,0-.34.95,1.16,1.16,0,0,0,.4.94,1.4,1.4,0,0,0,.94.33h5.51a1.24,1.24,0,0,0,1-.37,1.37,1.37,0,0,0,.34-1V111.9a1.23,1.23,0,0,0-.37-1,1.3,1.3,0,0,0-.94-.36H31.17v-2.91h6.74a4.76,4.76,0,0,1,1.38.22,4,4,0,0,1,1.37.73,4,4,0,0,1,1.05,1.31,4.08,4.08,0,0,1,.43,2Z"/><path class="cls-2" d="M58.91,120.44H55.84v-7.08a2.6,2.6,0,0,0-.21-1.08,2.39,2.39,0,0,0-1.39-1.35,2.9,2.9,0,0,0-1-.18H47.83v9.69H44.76V109.2a1.53,1.53,0,0,1,.12-.6,1.58,1.58,0,0,1,.33-.48,1.56,1.56,0,0,1,.5-.33,1.49,1.49,0,0,1,.6-.11h6.92a6,6,0,0,1,1.22.13,5.6,5.6,0,0,1,1.28.41,6.26,6.26,0,0,1,1.2.74A5,5,0,0,1,58,110a5.34,5.34,0,0,1,.7,1.46,6.31,6.31,0,0,1,.26,1.87Z"/><path class="cls-2" d="M75.49,121.67a4.77,4.77,0,0,1-.2,1.42,4.08,4.08,0,0,1-.53,1.11A3.77,3.77,0,0,1,74,125a4.5,4.5,0,0,1-.91.55,5.2,5.2,0,0,1-1,.31,4.47,4.47,0,0,1-.93.1H65.64v-3.07h5.54a1.23,1.23,0,0,0,.93-.32,1.25,1.25,0,0,0,.31-.92V112a1.09,1.09,0,0,0-1.24-1.22H65.64a1.18,1.18,0,0,0-.9.34,1.25,1.25,0,0,0-.33.88v4.16a1.12,1.12,0,0,0,1.26,1.24h5.51v3.07H65.64a4.31,4.31,0,0,1-.92-.1,4.47,4.47,0,0,1-1-.31,4.57,4.57,0,0,1-.92-.55,3.78,3.78,0,0,1-.77-.82,4.09,4.09,0,0,1-.53-1.11,4.77,4.77,0,0,1-.2-1.42V112a5.16,5.16,0,0,1,.1-.92,4.51,4.51,0,0,1,.32-1,4.09,4.09,0,0,1,.55-.91,3.3,3.3,0,0,1,.81-.77,4.16,4.16,0,0,1,1.1-.53,4.47,4.47,0,0,1,1.42-.2h5.54a4.47,4.47,0,0,1,.93.1,4.55,4.55,0,0,1,1,.31,4.09,4.09,0,0,1,.91.55,3.5,3.5,0,0,1,.77.81,4.08,4.08,0,0,1,.53,1.11,4.71,4.71,0,0,1,.2,1.41Z"/><path class="cls-2" d="M92,111.9a4.74,4.74,0,0,1-.23,1.38,4.2,4.2,0,0,1-.72,1.37,4.33,4.33,0,0,1-1.31,1.06,4.25,4.25,0,0,1-2,.42H82.27v-2.92h5.54a1.22,1.22,0,0,0,1-.38,1.37,1.37,0,0,0,.34-1,1.2,1.2,0,0,0-.38-.94,1.36,1.36,0,0,0-.93-.35H82.27a1.22,1.22,0,0,0-1,.39,1.35,1.35,0,0,0-.34,1v4.28a1.24,1.24,0,0,0,.38,1,1.39,1.39,0,0,0,1,.34h5.52v2.93H82.27a4.81,4.81,0,0,1-1.38-.22,4.14,4.14,0,0,1-1.37-.73,4,4,0,0,1-1-1.31,4.1,4.1,0,0,1-.43-2V111.9a4.73,4.73,0,0,1,.23-1.37,4.2,4.2,0,0,1,.72-1.37,4.07,4.07,0,0,1,1.31-1.06,4.25,4.25,0,0,1,2-.42h5.54a4.81,4.81,0,0,1,1.38.22,4.14,4.14,0,0,1,1.37.73,4,4,0,0,1,1,1.31A4.08,4.08,0,0,1,92,111.9Z"/><path class="cls-2" d="M116,116.13a4.77,4.77,0,0,1-.2,1.42,4.1,4.1,0,0,1-.54,1.11,3.51,3.51,0,0,1-.76.82,4.57,4.57,0,0,1-.92.55,4.38,4.38,0,0,1-1,.31,4.31,4.31,0,0,1-.92.1h-5.54a4.47,4.47,0,0,1-1.42-.2,3.64,3.64,0,0,1-1.1-.54,3.55,3.55,0,0,1-.82-.77,4.8,4.8,0,0,1-.55-.91,5.2,5.2,0,0,1-.31-1,4.45,4.45,0,0,1-.1-.92V112a4.25,4.25,0,0,1,.43-2,4.07,4.07,0,0,1,2.47-2.07,4.94,4.94,0,0,1,1.4-.22h5.54v3.07h-5.52a1.26,1.26,0,0,0-.93.31,1.19,1.19,0,0,0-.32.91v4.14a1.27,1.27,0,0,0,.31.94,1.21,1.21,0,0,0,.92.32h5.54a1.22,1.22,0,0,0,.93-.32,1.29,1.29,0,0,0,.31-.92V102.28H116Z"/><path class="cls-2" d="M132.09,116.21a4.74,4.74,0,0,1-.23,1.38,4.2,4.2,0,0,1-.72,1.37,4.25,4.25,0,0,1-1.32,1.06,4.2,4.2,0,0,1-2,.42h-5.54a4.76,4.76,0,0,1-1.38-.22,4,4,0,0,1-1.37-.73,4,4,0,0,1-1-1.31,4.1,4.1,0,0,1-.43-2,5.19,5.19,0,0,1,.22-1.38,4.22,4.22,0,0,1,.73-1.37,4,4,0,0,1,1.31-1.06,4.25,4.25,0,0,1,2-.43h5.54v2.93h-5.54a1.22,1.22,0,0,0-1,.39,1.35,1.35,0,0,0-.34.95,1.19,1.19,0,0,0,.39.94,1.44,1.44,0,0,0,.94.33h5.52a1.26,1.26,0,0,0,1-.37,1.42,1.42,0,0,0,.34-1V111.9a1.26,1.26,0,0,0-.37-1,1.3,1.3,0,0,0-.94-.36h-6.75v-2.91h6.75a4.7,4.7,0,0,1,1.37.22,4.06,4.06,0,0,1,2.43,2,4.2,4.2,0,0,1,.43,2Z"/><path class="cls-2" d="M146.27,110.75h-5.36v9.69H137.8v-9.69h-4v-3.07h4v-4.17h3.11v4.17h5.36Z"/><path class="cls-2" d="M160.74,116.21a4.74,4.74,0,0,1-.23,1.38,4,4,0,0,1-2,2.43,4.25,4.25,0,0,1-2,.42H151a4.81,4.81,0,0,1-1.38-.22,4.14,4.14,0,0,1-1.37-.73,4,4,0,0,1-1.05-1.31,4.1,4.1,0,0,1-.43-2,4.85,4.85,0,0,1,.23-1.38,4.2,4.2,0,0,1,.72-1.37A4,4,0,0,1,149,112.4a4.25,4.25,0,0,1,2-.43h5.54v2.93H151a1.22,1.22,0,0,0-1,.39,1.35,1.35,0,0,0-.34.95,1.16,1.16,0,0,0,.4.94,1.39,1.39,0,0,0,.93.33h5.52a1.24,1.24,0,0,0,1-.37,1.37,1.37,0,0,0,.34-1V111.9a1.23,1.23,0,0,0-.37-1,1.3,1.3,0,0,0-.94-.36h-6.74v-2.91h6.74a4.76,4.76,0,0,1,1.38.22,4.14,4.14,0,0,1,1.37.73,4,4,0,0,1,1.05,1.31,4.08,4.08,0,0,1,.43,2Z"/><path class="cls-3" d="M79.87,83.8h0Z"/><path class="cls-2" d="M81.07,0A10.62,10.62,0,0,1,91.49,10.62V73.18A10.62,10.62,0,0,1,81.07,83.79,41.9,41.9,0,0,0,122.56,41.9h0A41.9,41.9,0,0,0,81.07,0Z"/><path class="cls-3" d="M79.87,0h0Z"/><path class="cls-2" d="M69.25,73.18V10.62A10.61,10.61,0,0,1,79.66,0,41.9,41.9,0,0,0,38.17,41.9h0A41.9,41.9,0,0,0,79.66,83.79,10.61,10.61,0,0,1,69.25,73.18Z"/></g></g></g></svg>