<svg viewBox="0 0 2051.49 429.31" xmlns="http://www.w3.org/2000/svg"><g fill="#fff"><path d="m226.88 0v.39a54.44 54.44 0 0 1 46.58 53.86v320.82a54.44 54.44 0 0 1 -46.58 53.85v.39c114.53-4.7 205.94-99 205.94-214.65 0-115.66-91.41-209.96-205.94-214.66z"/><path d="m0 214.66c0 115.68 91.42 210 205.94 214.65v-.39a54.44 54.44 0 0 1 -46.58-53.85v-320.82a54.44 54.44 0 0 1 46.58-53.86v-.39c-114.52 4.7-205.94 99-205.94 214.66z"/><path d="m715.08 232.9a42.75 42.75 0 0 1 -1.83 13 37.82 37.82 0 0 1 -4.84 10.1 33.1 33.1 0 0 1 -7 7.43 41.55 41.55 0 0 1 -8.35 5 42.84 42.84 0 0 1 -8.83 2.85 42.18 42.18 0 0 1 -8.45.92h-50.5a45 45 0 0 1 -12.7-2 37.36 37.36 0 0 1 -12.76-6.73 37.75 37.75 0 0 1 -9.8-12.17q-3.93-7.48-3.93-18.36v-37.94q0-10.75 3.93-18.25a37.81 37.81 0 0 1 9.8-12.16 37.19 37.19 0 0 1 12.76-6.73 45 45 0 0 1 12.7-2.05h50.5q10.77 0 18.31 3.88a36.33 36.33 0 0 1 12.16 9.74 38.72 38.72 0 0 1 6.75 12.76 44.19 44.19 0 0 1 2.1 12.81zm-28-37.68q0-5.82-2.91-8.61t-8.4-2.8h-50.27q-5.6 0-8.51 2.85t-2.9 8.34v37.9q0 5.5 2.9 8.4t8.51 2.91h50.28c3.81 0 6.64-1 8.51-2.91s2.8-4.73 2.8-8.4z"/><path d="m840.73 183.81h-63q-5.71 0-8.62 2.85t-2.9 8.34v77.21h-28v-77.21a42.31 42.31 0 0 1 1.83-12.92 36.78 36.78 0 0 1 4.96-10.08 34 34 0 0 1 7-7.43 40.64 40.64 0 0 1 8.35-5 42.84 42.84 0 0 1 8.83-2.85 41.68 41.68 0 0 1 8.34-.92h63.2z"/><path d="m970.26 233.66a43.32 43.32 0 0 1 -2 12.54 37.41 37.41 0 0 1 -6.63 12.49 37 37 0 0 1 -12 9.64q-7.36 3.87-17.92 3.88h-50.5a43.47 43.47 0 0 1 -12.55-2 37.48 37.48 0 0 1 -12.49-6.62 36.85 36.85 0 0 1 -9.63-12q-3.88-7.37-3.88-17.92a43.6 43.6 0 0 1 2.05-12.6 37.33 37.33 0 0 1 6.62-12.54 36.83 36.83 0 0 1 11.95-9.64q7.38-3.87 17.93-3.88h50.5v26.71h-50.5q-5.72 0-8.83 3.5a12.53 12.53 0 0 0 -3.12 8.66 10.65 10.65 0 0 0 3.6 8.57 12.82 12.82 0 0 0 8.56 3.06h50.29q5.7 0 8.83-3.44a12.36 12.36 0 0 0 3.12-8.62v-39.09a11.47 11.47 0 0 0 -3.39-8.72 11.91 11.91 0 0 0 -8.56-3.23h-61.47v-26.6h61.48a43.46 43.46 0 0 1 12.54 2.05 37.48 37.48 0 0 1 12.49 6.62 37 37 0 0 1 9.64 12q3.87 7.38 3.87 17.93z"/><path d="m1123.16 272.21h-28v-64.61a24.72 24.72 0 0 0 -1.88-9.85 22.83 22.83 0 0 0 -5.12-7.48 22.13 22.13 0 0 0 -7.59-4.79 26.21 26.21 0 0 0 -9.42-1.67h-49v88.4h-28v-102.51a13.72 13.72 0 0 1 1.07-5.44 13.44 13.44 0 0 1 3-4.41 14.46 14.46 0 0 1 4.52-3 14.07 14.07 0 0 1 5.49-1.08h63.1a56.39 56.39 0 0 1 11.14 1.19 53.11 53.11 0 0 1 11.63 3.82 55.79 55.79 0 0 1 11 6.68 44.62 44.62 0 0 1 9.26 9.79 48.29 48.29 0 0 1 6.41 13.3 56.94 56.94 0 0 1 2.37 17z"/><path d="m1274.33 283.4a43.11 43.11 0 0 1 -1.83 13 38.14 38.14 0 0 1 -4.85 10.12 32.88 32.88 0 0 1 -7 7.43 41 41 0 0 1 -8.34 5 43.08 43.08 0 0 1 -8.83 2.86 42.21 42.21 0 0 1 -8.45.91h-50.5v-28h50.47q5.7 0 8.5-2.91t2.8-8.4v-88.41q0-5.49-2.8-8.34t-8.5-2.85h-50.5a10.74 10.74 0 0 0 -8.18 3.17 11.17 11.17 0 0 0 -3 8v37.9q0 5.5 2.91 8.4t8.5 2.91h50.27v28h-50.5a41.4 41.4 0 0 1 -8.4-.92 42.92 42.92 0 0 1 -8.77-2.85 41.28 41.28 0 0 1 -8.35-5 32.88 32.88 0 0 1 -7-7.43 37.82 37.82 0 0 1 -4.84-10.12 42.44 42.44 0 0 1 -1.83-13v-37.87a41.34 41.34 0 0 1 .91-8.39 43.41 43.41 0 0 1 2.85-8.78 41.21 41.21 0 0 1 5-8.34 32.88 32.88 0 0 1 7.43-7 38.26 38.26 0 0 1 10.07-4.85 42.21 42.21 0 0 1 12.92-1.83h50.51a42.26 42.26 0 0 1 8.45.92 43 43 0 0 1 8.83 2.85 40.58 40.58 0 0 1 8.34 5 32.67 32.67 0 0 1 7 7.43 38.19 38.19 0 0 1 4.85 10.06 42.62 42.62 0 0 1 1.83 12.92z"/><path d="m1425.17 194.36a43.37 43.37 0 0 1 -2 12.54 37.59 37.59 0 0 1 -6.63 12.49 36.83 36.83 0 0 1 -12 9.64q-7.36 3.87-17.92 3.87h-50.5v-26.59h50.5q5.7 0 8.83-3.5a12.54 12.54 0 0 0 3.12-8.67 11 11 0 0 0 -3.5-8.61 12.27 12.27 0 0 0 -8.45-3.12h-50.5q-5.72 0-8.83 3.5a12.53 12.53 0 0 0 -3.12 8.66v39.09q0 5.59 3.5 8.72a12.53 12.53 0 0 0 8.66 3.12h50.29v26.71h-50.5a43.35 43.35 0 0 1 -12.54-2 37.43 37.43 0 0 1 -12.5-6.62 36.85 36.85 0 0 1 -9.63-12q-3.89-7.37-3.88-17.92v-39.3a43.13 43.13 0 0 1 2.05-12.55 37.44 37.44 0 0 1 6.62-12.48 36.83 36.83 0 0 1 12-9.64q7.38-3.87 17.93-3.88h50.5a43.46 43.46 0 0 1 12.54 2.05 37.39 37.39 0 0 1 12.49 6.62 37 37 0 0 1 9.64 12q3.83 7.32 3.83 17.87z"/><path d="m1643.42 232.9a42.75 42.75 0 0 1 -1.83 13 38.13 38.13 0 0 1 -4.84 10.12 33.33 33.33 0 0 1 -7 7.43 41.55 41.55 0 0 1 -8.35 5 42.84 42.84 0 0 1 -8.83 2.85 42.18 42.18 0 0 1 -8.45.92h-50.5a42 42 0 0 1 -12.92-1.84 36.5 36.5 0 0 1 -10.06-4.9 33.54 33.54 0 0 1 -7.43-7.05 40.31 40.31 0 0 1 -5-8.34 43 43 0 0 1 -2.85-8.83 41.05 41.05 0 0 1 -.92-8.35v-37.91q0-10.75 3.93-18.25a37.81 37.81 0 0 1 9.8-12.16 37.1 37.1 0 0 1 12.76-6.73 45 45 0 0 1 12.7-2.05h50.5v28h-50.28q-5.6 0-8.51 2.85c-1.94 1.9-2.9 4.68-2.9 8.34v37.69q0 5.72 2.85 8.61t8.34 2.91h50.5q5.7 0 8.51-2.91c1.86-1.93 2.8-4.73 2.8-8.4v-126.29h28z"/><path d="m1790.29 233.66a43.35 43.35 0 0 1 -2 12.54 36.69 36.69 0 0 1 -18.57 22.13q-7.38 3.87-17.93 3.88h-50.5a43.4 43.4 0 0 1 -12.54-2 37.39 37.39 0 0 1 -12.49-6.62 37 37 0 0 1 -9.64-12q-3.87-7.37-3.87-17.92a43.91 43.91 0 0 1 2-12.6 37.33 37.33 0 0 1 6.62-12.54 36.94 36.94 0 0 1 12-9.64q7.38-3.87 17.93-3.88h50.5v26.71h-50.5q-5.7 0-8.83 3.5a12.53 12.53 0 0 0 -3.12 8.66 10.63 10.63 0 0 0 3.61 8.57 12.78 12.78 0 0 0 8.56 3.06h50.28q5.7 0 8.83-3.44a12.36 12.36 0 0 0 3.12-8.62v-39.09a11.47 11.47 0 0 0 -3.39-8.72 11.9 11.9 0 0 0 -8.56-3.23h-61.48v-26.6h61.48a43.35 43.35 0 0 1 12.54 2.05 37.39 37.39 0 0 1 12.49 6.62 36.83 36.83 0 0 1 9.64 12q3.87 7.38 3.88 17.93z"/><path d="m1919.6 183.81h-48.89v88.4h-28.31v-88.4h-36.4v-28h36.4v-38h28.31v38h48.89z"/><path d="m2051.49 233.66a43.32 43.32 0 0 1 -2 12.54 37.57 37.57 0 0 1 -6.62 12.49 37.11 37.11 0 0 1 -12 9.64q-7.36 3.87-17.92 3.88h-50.5a43.35 43.35 0 0 1 -12.54-2 37.39 37.39 0 0 1 -12.49-6.62 36.87 36.87 0 0 1 -9.64-12q-3.87-7.37-3.88-17.92a44 44 0 0 1 2-12.6 37.33 37.33 0 0 1 6.62-12.54 36.83 36.83 0 0 1 12-9.64q7.38-3.87 17.93-3.88h50.55v26.71h-50.5q-5.71 0-8.83 3.5a12.53 12.53 0 0 0 -3.12 8.66 10.63 10.63 0 0 0 3.61 8.57 12.78 12.78 0 0 0 8.56 3.06h50.28q5.7 0 8.83-3.44a12.36 12.36 0 0 0 3.12-8.62v-39.09a11.47 11.47 0 0 0 -3.39-8.72 11.9 11.9 0 0 0 -8.56-3.23h-61.48v-26.6h61.48a43.4 43.4 0 0 1 12.54 2.05 37.39 37.39 0 0 1 12.49 6.62 37 37 0 0 1 9.64 12q3.87 7.38 3.87 17.93z"/></g></svg>