<svg height="432.518" viewBox="0 0 94.772 432.518" width="94.772" xmlns="http://www.w3.org/2000/svg" xmlns:xlink="http://www.w3.org/1999/xlink"><clipPath id="a"><path d="m4653.094 3578.75-4.588 18.847-8.214 239.437h33.322l-8.214-239.434-4.588-18.847-3.86.622z" transform="translate(-4640.292 -3578.75)"/></clipPath><clipPath id="b"><path clip-rule="evenodd" d="m4582.457 2659.129c35.523 44.659 45.714 122.3 19.914 174.233h-39.829c-25.8-51.932-15.608-129.574 19.915-174.233z" transform="translate(-4548.137 -2659.129)"/></clipPath><g fill-rule="evenodd"><path d="m4489.981 3471.912c2.28-17.431 16.138-22.114 16.138-22.114l-3.219-28.798c-.583 1.354-2.08 2.672-2.989 3.806q-3.443 4.295-6.878 8.6c-2.6 3.274-5.188 6.561-7.715 9.893-1.994 2.63-4.267 5.222-5.433 8.358-1.318 3.547-.494 6.964.043 10.577.665 4.465 5.416 22.439 7.254 32.076z" fill="#f5bf5d" transform="translate(-4479.175 -3276.654)"/><path d="m4514.148 3529c2.28-17.431 16.138-22.114 16.138-22.114s-.886-7.92-1.729-15.453c-4.2 3.5-14.808 12.876-17.976 20.569-3.735 9.072.211 35.845.708 39.085.02.1.04.205.059.305z" fill="#f7aa3e" transform="translate(-4503.342 -3333.746)"/><path d="m4853.313 3471.912c-2.28-17.431-16.138-22.114-16.138-22.114l3.221-28.8c.583 1.354 2.08 2.672 2.989 3.806q3.442 4.295 6.878 8.6c2.6 3.274 5.188 6.561 7.715 9.893 1.995 2.63 4.267 5.222 5.432 8.358 1.318 3.547.495 6.964-.043 10.577-.665 4.465-5.416 22.439-7.254 32.076z" fill="#f5bf5d" transform="translate(-4769.348 -3276.654)"/><path d="m4853.313 3529c-2.28-17.431-16.138-22.114-16.138-22.114s.886-7.92 1.729-15.453c4.2 3.5 14.808 12.876 17.976 20.569 3.735 9.072-.211 35.845-.708 39.085-.02.1-.04.205-.059.305z" fill="#f7aa3e" transform="translate(-4769.348 -3333.746)"/></g><g clip-path="url(#a)" transform="translate(30.526 174.233)"><path d="m4555.114 3612.531-10.57 18.847-18.924 239.437h76.78l-18.924-239.437-10.57-18.847-8.894.622z" fill="#fff" fill-rule="evenodd" opacity=".69" transform="translate(-4547.345 -3606.131)"/></g><path d="m4633.674 3563.639h28.861l4.545 17.057h-37.95z" fill="#263c95" fill-rule="evenodd" transform="translate(-4600.719 -3392.269)"/><path d="m27.471 174.233h39.829v6.4h-39.829z" fill="#71cfd8"/><g transform="translate(13.066)"><path d="m4582.457 2659.129c35.523 44.659 45.714 122.3 19.914 174.233h-39.829c-25.8-51.932-15.608-129.574 19.915-174.233z" fill="#91345c" fill-rule="evenodd" opacity=".17" transform="translate(-4548.137 -2659.129)"/><g clip-path="url(#b)"><g fill-rule="evenodd"><path d="m4609.62 2833.364h14.292v-174.233c-25.493 44.66-32.812 122.301-14.292 174.233z" fill="#263c95" transform="translate(-4589.592 -2659.131)"/><path d="m4582.457 2659.129c35.523 44.659 45.714 122.3 19.914 174.233h-39.829c-25.8-51.932-15.608-129.574 19.915-174.233z" fill="#e5eef9" transform="translate(-4548.137 -2659.129)"/><path d="m4609.62 2833.364h14.292v-174.233c-25.493 44.66-32.812 122.301-14.292 174.233z" fill="#263c95" transform="translate(-4589.592 -2659.131)"/><path d="m4602.014 2724.628v-65.5c-14.177 17.823-24.319 40.9-29.749 65.5z" fill="#e5eef9" transform="translate(-4567.694 -2659.131)"/><path d="m4549.184 3119.667c-3.2 30.577.85 61.8 13.359 86.979h19.915v-86.979z" fill="#e5eef9" transform="translate(-4548.138 -3032.413)"/><path d="m4729.282 2659.129v174.233h19.918c25.8-51.932 15.609-129.574-19.914-174.233z" fill="#e5eef9" transform="translate(-4694.962 -2659.129)"/><path d="m4602.014 2724.628v-65.5c-14.177 17.823-24.319 40.9-29.749 65.5z" fill="#e5eef9" transform="translate(-4567.694 -2659.131)"/><path d="m4549.184 3119.667c-3.2 30.577.85 61.8 13.359 86.979h19.915v-86.979z" fill="#e5eef9" transform="translate(-4548.138 -3032.413)"/><path d="m4729.284 2659.129c25.494 44.66 32.807 122.3 14.291 174.233h5.623c25.802-51.932 15.61-129.574-19.914-174.233z" fill="#263c95" transform="translate(-4694.964 -2659.129)"/><path d="m4582.457 2659.131c-35.523 44.66-45.715 122.3-19.915 174.233h19.915z" fill="#e5eef9" transform="translate(-4548.137 -2659.131)"/></g><path d="m0 0h75.974v21.757h-75.974z" fill="#263c95" transform="translate(-3.247 87.254)"/><path d="m0 0h75.974v21.757h-75.974z" fill="#e5eef9" transform="translate(-3.247 130.768)"/><path d="m0 0h75.974v21.757h-75.974z" fill="#263c95" transform="translate(-3.247 109.011)"/><path d="m0 0h75.974v21.757h-75.974z" fill="#263c95" transform="translate(-3.247 152.524)"/><path d="m4638.628 2911.757v-21.757h-16.713c-1.767 7.045-3.242 14.331-4.411 21.757z" fill="#263c95" fill-rule="evenodd" transform="translate(-4604.361 -2846.259)"/><path d="m4729 2911.757h21.231c-1.168-7.426-2.644-14.712-4.411-21.757h-16.82z" fill="#263c95" fill-rule="evenodd" transform="translate(-4694.733 -2846.259)"/><path d="m4729.283 2659.129v174.233h14.292c18.515-51.932 11.201-129.573-14.292-174.233z" fill="#e5eef9" fill-rule="evenodd" transform="translate(-4694.962 -2659.129)"/><path d="m0 0h75.974v21.757h-75.974z" fill="#263c95" transform="translate(-3.247 87.254)"/><path d="m4604.924 2702.87h47.123c-5.734-16.294-13.664-31.3-23.562-43.741-9.897 12.443-17.827 27.447-23.561 43.741z" fill="#212e60" fill-rule="evenodd" transform="translate(-4594.165 -2659.129)"/><path d="m4627.124 3026.59v-21.756h-21.349c-1.133 7.154-1.981 14.437-2.53 21.756z" fill="#e5eef9" fill-rule="evenodd" transform="translate(-4592.803 -2939.336)"/><path d="m4565.582 3004.833h-8.4a195.347 195.347 0 0 0 -3.525 21.756h9.395c.548-7.319 1.397-14.602 2.53-21.756z" fill="#263c95" fill-rule="evenodd" transform="translate(-4552.611 -2939.336)"/><path d="m4828.738 3004.833h-13.456v21.756h16.981a195.347 195.347 0 0 0 -3.525-21.756z" fill="#e5eef9" fill-rule="evenodd" transform="translate(-4764.668 -2939.336)"/><path d="m4729.282 3026.59h23.88c-.549-7.32-1.4-14.6-2.53-21.756h-21.35z" fill="#263c95" fill-rule="evenodd" transform="translate(-4694.962 -2939.336)"/><path d="m4729.282 3141.423h24.618c.053-7.229-.2-14.511-.742-21.756h-23.88z" fill="#e5eef9" fill-rule="evenodd" transform="translate(-4694.962 -3032.412)"/><path d="m4729.282 3256.257h23.518c.69-7.136 1.056-14.419 1.108-21.757h-24.622z" fill="#263c95" fill-rule="evenodd" transform="translate(-4694.962 -3125.489)"/><path d="m4729.282 3464.167v21.709h14.292a161.586 161.586 0 0 0 5.985-21.709z" fill="#263c95" fill-rule="evenodd" transform="translate(-4694.962 -3311.643)"/><path d="m4582.5 3256.257v-21.757h-34.31a176.317 176.317 0 0 0 1.545 21.757z" fill="#e5eef9" fill-rule="evenodd" transform="translate(-4548.181 -3125.489)"/><path d="m4628.686 3371.09v-21.757h-23.514a207.765 207.765 0 0 0 3.237 21.757z" fill="#263c95" fill-rule="evenodd" transform="translate(-4594.366 -3218.565)"/><g fill="#e5eef9" transform="translate(-3.247 109.011)"><path d="m0 0h37.567v21.757h-37.567z"/><g fill-rule="evenodd"><path d="m4868.285 3234.5h-13.785c-.053 7.338-.418 14.621-1.109 21.757h14.894z" transform="translate(-4792.31 -3234.5)"/><path d="m4729.282 3392.8h14.292a182.925 182.925 0 0 0 9.222-43.466h-23.514z" transform="translate(-4691.715 -3327.576)"/></g></g><path d="m4622.255 3464.167a161.514 161.514 0 0 0 5.986 21.709h14.292v-21.709z" fill="#e5eef9" fill-rule="evenodd" transform="translate(-4608.212 -3311.643)"/><path d="m4729.282 3464.167v21.709h14.292a161.586 161.586 0 0 0 5.985-21.709z" fill="#263c95" fill-rule="evenodd" transform="translate(-4694.962 -3311.643)"/><path d="m4854.438 3349.333h-14.894a207.894 207.894 0 0 1 -3.237 21.757h18.13z" fill="#263c95" fill-rule="evenodd" transform="translate(-4781.71 -3218.565)"/><path d="m4531 3234.5v21.757h14.053c-.69-7.136-1.056-14.419-1.108-21.757z" fill="#263c95" fill-rule="evenodd" transform="translate(-4534.247 -3125.489)"/><path d="m4544.688 3119.667h-13.688v21.756h12.944c-.051-7.229.2-14.511.744-21.756z" fill="#e5eef9" fill-rule="evenodd" transform="translate(-4534.247 -3032.412)"/><path d="m4828.831 3485.924v-21.757h-18.131a161.587 161.587 0 0 1 -5.986 21.709" fill="#e5eef9" fill-rule="evenodd" transform="translate(-4756.103 -3311.643)"/><path d="m0 0h51.344v2.842h-51.344z" fill="#f7aa3e" transform="translate(8.121 40.899)"/></g></g><path d="m4729.284 2659.129c15.861 49.425 22.251 122.3 3.736 174.233h16.18c25.8-51.932 15.608-129.574-19.916-174.233z" fill="#484848" fill-rule="evenodd" opacity=".2" transform="translate(-4681.898 -2659.129)"/></svg>