<svg xmlns="http://www.w3.org/2000/svg" viewBox="0 0 40.6 40.61"><defs><style>.cls-1{fill:#fff;}</style></defs><g id="Layer_2" data-name="Layer 2"><g id="Layer_1-2" data-name="Layer 1"><path class="cls-1" d="M27,20.29c4.28,4,7.82,7.27,11.3,10.59,2.49,2.37,3.36,5.16.82,7.88-2.8,3-5.69,2-8.2-.63-3.35-3.47-6.64-7-10.88-11.45-3.48,3.93-6.53,7.41-9.63,10.86C7.91,40.26,5,42.1,1.83,39c-3.45-3.34-1.43-6.3,1.38-8.91L13.63,20.4c-3.8-3.61-7-6.65-10.24-9.72C.73,8.11-1.74,5.22,1.65,1.76S8,.38,10.59,3.21L20.55,14c3-3.47,5.26-6.33,7.79-8.94C33.55-.37,36.58-1.33,39,1.75c4.06,5.13-.75,7.73-3.58,10.68C33,14.94,30.33,17.18,27,20.29Z"/></g></g></svg>